<mxfile host="Electron" modified="2023-12-18T22:57:07.151Z" agent="Mozilla/5.0 (Windows NT 10.0; Win64; x64) AppleWebKit/537.36 (KHTML, like Gecko) draw.io/21.6.8 Chrome/114.0.5735.289 Electron/25.5.0 Safari/537.36" etag="e8B8ndQDu-jitEVSz7AX" version="21.6.8" type="device">
  <diagram name="PÃ¡gina-1" id="IZnLdRBzOwC7PxT6jHz_">
    <mxGraphModel dx="2587" dy="2474" grid="1" gridSize="10" guides="1" tooltips="1" connect="1" arrows="1" fold="1" page="1" pageScale="1" pageWidth="1169" pageHeight="827" math="0" shadow="0">
      <root>
        <mxCell id="0" />
        <mxCell id="1" parent="0" />
        <mxCell id="fEWmQViv0Enz_nrROp1N-238" value="UI" style="shape=folder;fontStyle=1;tabWidth=110;tabHeight=30;tabPosition=left;html=1;boundedLbl=1;labelInHeader=1;container=1;collapsible=0;whiteSpace=wrap;strokeWidth=2;" parent="1" vertex="1">
          <mxGeometry x="-5" y="-1180" width="1570" height="822" as="geometry" />
        </mxCell>
        <mxCell id="fEWmQViv0Enz_nrROp1N-239" value="" style="html=1;strokeColor=none;resizeWidth=1;resizeHeight=1;fillColor=none;part=1;connectable=0;allowArrows=0;deletable=0;whiteSpace=wrap;" parent="fEWmQViv0Enz_nrROp1N-238" vertex="1">
          <mxGeometry width="1569.9999999999995" height="575.4" relative="1" as="geometry">
            <mxPoint y="30" as="offset" />
          </mxGeometry>
        </mxCell>
        <mxCell id="fEWmQViv0Enz_nrROp1N-131" value="EC" style="shape=folder;fontStyle=1;tabWidth=110;tabHeight=30;tabPosition=left;html=1;boundedLbl=1;labelInHeader=1;container=1;collapsible=0;whiteSpace=wrap;strokeWidth=2;" parent="1" vertex="1">
          <mxGeometry x="1565" y="-330" width="580" height="1150" as="geometry" />
        </mxCell>
        <mxCell id="fEWmQViv0Enz_nrROp1N-132" value="" style="html=1;strokeColor=none;resizeWidth=1;resizeHeight=1;fillColor=none;part=1;connectable=0;allowArrows=0;deletable=0;whiteSpace=wrap;" parent="fEWmQViv0Enz_nrROp1N-131" vertex="1">
          <mxGeometry width="580" height="805" relative="1" as="geometry">
            <mxPoint y="30" as="offset" />
          </mxGeometry>
        </mxCell>
        <mxCell id="fEWmQViv0Enz_nrROp1N-88" value="LOGICA" style="shape=folder;fontStyle=1;tabWidth=110;tabHeight=30;tabPosition=left;html=1;boundedLbl=1;labelInHeader=1;container=1;collapsible=0;whiteSpace=wrap;strokeWidth=2;" parent="1" vertex="1">
          <mxGeometry x="-5" y="-330" width="1425" height="560" as="geometry" />
        </mxCell>
        <mxCell id="fEWmQViv0Enz_nrROp1N-89" value="" style="html=1;strokeColor=none;resizeWidth=1;resizeHeight=1;fillColor=none;part=1;connectable=0;allowArrows=0;deletable=0;whiteSpace=wrap;" parent="fEWmQViv0Enz_nrROp1N-88" vertex="1">
          <mxGeometry width="1424.9999999999995" height="392" relative="1" as="geometry">
            <mxPoint y="30" as="offset" />
          </mxGeometry>
        </mxCell>
        <mxCell id="fEWmQViv0Enz_nrROp1N-48" value="PERSISTENCIA" style="shape=folder;fontStyle=1;tabWidth=110;tabHeight=30;tabPosition=left;html=1;boundedLbl=1;labelInHeader=1;container=1;collapsible=0;whiteSpace=wrap;strokeWidth=2;" parent="1" vertex="1">
          <mxGeometry x="-10" y="260" width="1430" height="560" as="geometry" />
        </mxCell>
        <mxCell id="fEWmQViv0Enz_nrROp1N-49" value="" style="html=1;strokeColor=none;resizeWidth=1;resizeHeight=1;fillColor=none;part=1;connectable=0;allowArrows=0;deletable=0;whiteSpace=wrap;" parent="fEWmQViv0Enz_nrROp1N-48" vertex="1">
          <mxGeometry width="1429.9999999999995" height="392" relative="1" as="geometry">
            <mxPoint y="30" as="offset" />
          </mxGeometry>
        </mxCell>
        <mxCell id="fEWmQViv0Enz_nrROp1N-5" value="Conexion" style="swimlane;fontStyle=1;align=center;verticalAlign=top;childLayout=stackLayout;horizontal=1;startSize=26;horizontalStack=0;resizeParent=1;resizeParentMax=0;resizeLast=0;collapsible=1;marginBottom=0;whiteSpace=wrap;html=1;rounded=1;" parent="1" vertex="1">
          <mxGeometry x="585" y="710" width="150" height="86" as="geometry" />
        </mxCell>
        <mxCell id="fEWmQViv0Enz_nrROp1N-6" value="+ STR : string&amp;nbsp;" style="text;strokeColor=none;fillColor=none;align=left;verticalAlign=top;spacingLeft=4;spacingRight=4;overflow=hidden;rotatable=0;points=[[0,0.5],[1,0.5]];portConstraint=eastwest;whiteSpace=wrap;html=1;" parent="fEWmQViv0Enz_nrROp1N-5" vertex="1">
          <mxGeometry y="26" width="150" height="26" as="geometry" />
        </mxCell>
        <mxCell id="fEWmQViv0Enz_nrROp1N-7" value="" style="line;strokeWidth=1;fillColor=none;align=left;verticalAlign=middle;spacingTop=-1;spacingLeft=3;spacingRight=3;rotatable=0;labelPosition=right;points=[];portConstraint=eastwest;strokeColor=inherit;" parent="fEWmQViv0Enz_nrROp1N-5" vertex="1">
          <mxGeometry y="52" width="150" height="8" as="geometry" />
        </mxCell>
        <mxCell id="fEWmQViv0Enz_nrROp1N-8" value="&lt;font color=&quot;#ffffff&quot;&gt;-&lt;/font&gt;" style="text;strokeColor=none;fillColor=none;align=left;verticalAlign=top;spacingLeft=4;spacingRight=4;overflow=hidden;rotatable=0;points=[[0,0.5],[1,0.5]];portConstraint=eastwest;whiteSpace=wrap;html=1;" parent="fEWmQViv0Enz_nrROp1N-5" vertex="1">
          <mxGeometry y="60" width="150" height="26" as="geometry" />
        </mxCell>
        <mxCell id="fEWmQViv0Enz_nrROp1N-9" value="PersistenciaCompania" style="swimlane;fontStyle=1;align=center;verticalAlign=top;childLayout=stackLayout;horizontal=1;startSize=26;horizontalStack=0;resizeParent=1;resizeParentMax=0;resizeLast=0;collapsible=1;marginBottom=0;whiteSpace=wrap;html=1;rounded=1;" parent="1" vertex="1">
          <mxGeometry x="50" y="414" width="240" height="190" as="geometry" />
        </mxCell>
        <mxCell id="fEWmQViv0Enz_nrROp1N-18" value="&lt;font color=&quot;#ffffff&quot;&gt;-&lt;/font&gt;" style="text;strokeColor=none;fillColor=none;align=left;verticalAlign=top;spacingLeft=4;spacingRight=4;overflow=hidden;rotatable=0;points=[[0,0.5],[1,0.5]];portConstraint=eastwest;whiteSpace=wrap;html=1;" parent="fEWmQViv0Enz_nrROp1N-9" vertex="1">
          <mxGeometry y="26" width="240" height="26" as="geometry" />
        </mxCell>
        <mxCell id="fEWmQViv0Enz_nrROp1N-11" value="" style="line;strokeWidth=1;fillColor=none;align=left;verticalAlign=middle;spacingTop=-1;spacingLeft=3;spacingRight=3;rotatable=0;labelPosition=right;points=[];portConstraint=eastwest;strokeColor=inherit;" parent="fEWmQViv0Enz_nrROp1N-9" vertex="1">
          <mxGeometry y="52" width="240" height="8" as="geometry" />
        </mxCell>
        <mxCell id="fEWmQViv0Enz_nrROp1N-10" value="&lt;u&gt;+ Agregar (cCompania : Compania)&lt;/u&gt;" style="text;strokeColor=none;fillColor=none;align=left;verticalAlign=top;spacingLeft=4;spacingRight=4;overflow=hidden;rotatable=0;points=[[0,0.5],[1,0.5]];portConstraint=eastwest;whiteSpace=wrap;html=1;" parent="fEWmQViv0Enz_nrROp1N-9" vertex="1">
          <mxGeometry y="60" width="240" height="26" as="geometry" />
        </mxCell>
        <mxCell id="fEWmQViv0Enz_nrROp1N-12" value="&lt;u&gt;+ Modificar (cCompania : Compania)&lt;/u&gt;" style="text;strokeColor=none;fillColor=none;align=left;verticalAlign=top;spacingLeft=4;spacingRight=4;overflow=hidden;rotatable=0;points=[[0,0.5],[1,0.5]];portConstraint=eastwest;whiteSpace=wrap;html=1;" parent="fEWmQViv0Enz_nrROp1N-9" vertex="1">
          <mxGeometry y="86" width="240" height="26" as="geometry" />
        </mxCell>
        <mxCell id="fEWmQViv0Enz_nrROp1N-16" value="&lt;u&gt;+ Eliminar (cCompania : Compania)&lt;/u&gt;" style="text;strokeColor=none;fillColor=none;align=left;verticalAlign=top;spacingLeft=4;spacingRight=4;overflow=hidden;rotatable=0;points=[[0,0.5],[1,0.5]];portConstraint=eastwest;whiteSpace=wrap;html=1;" parent="fEWmQViv0Enz_nrROp1N-9" vertex="1">
          <mxGeometry y="112" width="240" height="26" as="geometry" />
        </mxCell>
        <mxCell id="fEWmQViv0Enz_nrROp1N-19" value="&lt;u&gt;+ Buscar (cCompania : string) : Compania&lt;/u&gt;" style="text;strokeColor=none;fillColor=none;align=left;verticalAlign=top;spacingLeft=4;spacingRight=4;overflow=hidden;rotatable=0;points=[[0,0.5],[1,0.5]];portConstraint=eastwest;whiteSpace=wrap;html=1;" parent="fEWmQViv0Enz_nrROp1N-9" vertex="1">
          <mxGeometry y="138" width="240" height="26" as="geometry" />
        </mxCell>
        <mxCell id="fEWmQViv0Enz_nrROp1N-14" value="&lt;u&gt;+ ListarCompanias() : Lista de Companias&lt;/u&gt;" style="text;strokeColor=none;fillColor=none;align=left;verticalAlign=top;spacingLeft=4;spacingRight=4;overflow=hidden;rotatable=0;points=[[0,0.5],[1,0.5]];portConstraint=eastwest;whiteSpace=wrap;html=1;" parent="fEWmQViv0Enz_nrROp1N-9" vertex="1">
          <mxGeometry y="164" width="240" height="26" as="geometry" />
        </mxCell>
        <mxCell id="fEWmQViv0Enz_nrROp1N-20" value="PersistenciaInternacional" style="swimlane;fontStyle=1;align=center;verticalAlign=top;childLayout=stackLayout;horizontal=1;startSize=26;horizontalStack=0;resizeParent=1;resizeParentMax=0;resizeLast=0;collapsible=1;marginBottom=0;whiteSpace=wrap;html=1;rounded=1;" parent="1" vertex="1">
          <mxGeometry x="310" y="414" width="340" height="190" as="geometry" />
        </mxCell>
        <mxCell id="fEWmQViv0Enz_nrROp1N-21" value="&lt;font color=&quot;#ffffff&quot;&gt;}&lt;/font&gt;" style="text;strokeColor=none;fillColor=none;align=left;verticalAlign=top;spacingLeft=4;spacingRight=4;overflow=hidden;rotatable=0;points=[[0,0.5],[1,0.5]];portConstraint=eastwest;whiteSpace=wrap;html=1;" parent="fEWmQViv0Enz_nrROp1N-20" vertex="1">
          <mxGeometry y="26" width="340" height="26" as="geometry" />
        </mxCell>
        <mxCell id="fEWmQViv0Enz_nrROp1N-22" value="" style="line;strokeWidth=1;fillColor=none;align=left;verticalAlign=middle;spacingTop=-1;spacingLeft=3;spacingRight=3;rotatable=0;labelPosition=right;points=[];portConstraint=eastwest;strokeColor=inherit;" parent="fEWmQViv0Enz_nrROp1N-20" vertex="1">
          <mxGeometry y="52" width="340" height="8" as="geometry" />
        </mxCell>
        <mxCell id="fEWmQViv0Enz_nrROp1N-23" value="+ Agregar (tInternacional : Internacional)" style="text;strokeColor=none;fillColor=none;align=left;verticalAlign=top;spacingLeft=4;spacingRight=4;overflow=hidden;rotatable=0;points=[[0,0.5],[1,0.5]];portConstraint=eastwest;whiteSpace=wrap;html=1;fontStyle=4" parent="fEWmQViv0Enz_nrROp1N-20" vertex="1">
          <mxGeometry y="60" width="340" height="26" as="geometry" />
        </mxCell>
        <mxCell id="fEWmQViv0Enz_nrROp1N-27" value="+ Modificar (tInternacional : Internacional)" style="text;strokeColor=none;fillColor=none;align=left;verticalAlign=top;spacingLeft=4;spacingRight=4;overflow=hidden;rotatable=0;points=[[0,0.5],[1,0.5]];portConstraint=eastwest;whiteSpace=wrap;html=1;fontStyle=4" parent="fEWmQViv0Enz_nrROp1N-20" vertex="1">
          <mxGeometry y="86" width="340" height="26" as="geometry" />
        </mxCell>
        <mxCell id="fEWmQViv0Enz_nrROp1N-28" value="+ Eliminar (tInternacional : Internacional)" style="text;strokeColor=none;fillColor=none;align=left;verticalAlign=top;spacingLeft=4;spacingRight=4;overflow=hidden;rotatable=0;points=[[0,0.5],[1,0.5]];portConstraint=eastwest;whiteSpace=wrap;html=1;fontStyle=4" parent="fEWmQViv0Enz_nrROp1N-20" vertex="1">
          <mxGeometry y="112" width="340" height="26" as="geometry" />
        </mxCell>
        <mxCell id="fEWmQViv0Enz_nrROp1N-26" value="+ Buscar (tInternacional : string) : Internacional" style="text;strokeColor=none;fillColor=none;align=left;verticalAlign=top;spacingLeft=4;spacingRight=4;overflow=hidden;rotatable=0;points=[[0,0.5],[1,0.5]];portConstraint=eastwest;whiteSpace=wrap;html=1;fontStyle=4" parent="fEWmQViv0Enz_nrROp1N-20" vertex="1">
          <mxGeometry y="138" width="340" height="26" as="geometry" />
        </mxCell>
        <mxCell id="fEWmQViv0Enz_nrROp1N-29" value="&lt;u&gt;+ ListarTerminalesInternacionales() : Lista de Internacionales&lt;/u&gt;" style="text;strokeColor=none;fillColor=none;align=left;verticalAlign=top;spacingLeft=4;spacingRight=4;overflow=hidden;rotatable=0;points=[[0,0.5],[1,0.5]];portConstraint=eastwest;whiteSpace=wrap;html=1;" parent="fEWmQViv0Enz_nrROp1N-20" vertex="1">
          <mxGeometry y="164" width="340" height="26" as="geometry" />
        </mxCell>
        <mxCell id="fEWmQViv0Enz_nrROp1N-30" value="PersistenciaNacional" style="swimlane;fontStyle=1;align=center;verticalAlign=top;childLayout=stackLayout;horizontal=1;startSize=26;horizontalStack=0;resizeParent=1;resizeParentMax=0;resizeLast=0;collapsible=1;marginBottom=0;whiteSpace=wrap;html=1;rounded=1;" parent="1" vertex="1">
          <mxGeometry x="670" y="414" width="290" height="190" as="geometry" />
        </mxCell>
        <mxCell id="fEWmQViv0Enz_nrROp1N-31" value="&lt;font color=&quot;#ffffff&quot;&gt;}&lt;/font&gt;" style="text;strokeColor=none;fillColor=none;align=left;verticalAlign=top;spacingLeft=4;spacingRight=4;overflow=hidden;rotatable=0;points=[[0,0.5],[1,0.5]];portConstraint=eastwest;whiteSpace=wrap;html=1;" parent="fEWmQViv0Enz_nrROp1N-30" vertex="1">
          <mxGeometry y="26" width="290" height="26" as="geometry" />
        </mxCell>
        <mxCell id="fEWmQViv0Enz_nrROp1N-32" value="" style="line;strokeWidth=1;fillColor=none;align=left;verticalAlign=middle;spacingTop=-1;spacingLeft=3;spacingRight=3;rotatable=0;labelPosition=right;points=[];portConstraint=eastwest;strokeColor=inherit;" parent="fEWmQViv0Enz_nrROp1N-30" vertex="1">
          <mxGeometry y="52" width="290" height="8" as="geometry" />
        </mxCell>
        <mxCell id="fEWmQViv0Enz_nrROp1N-33" value="+ Agregar (tNacional : Nacional)" style="text;strokeColor=none;fillColor=none;align=left;verticalAlign=top;spacingLeft=4;spacingRight=4;overflow=hidden;rotatable=0;points=[[0,0.5],[1,0.5]];portConstraint=eastwest;whiteSpace=wrap;html=1;fontStyle=4" parent="fEWmQViv0Enz_nrROp1N-30" vertex="1">
          <mxGeometry y="60" width="290" height="26" as="geometry" />
        </mxCell>
        <mxCell id="fEWmQViv0Enz_nrROp1N-34" value="+ Modificar (tNacional : Nacional)" style="text;strokeColor=none;fillColor=none;align=left;verticalAlign=top;spacingLeft=4;spacingRight=4;overflow=hidden;rotatable=0;points=[[0,0.5],[1,0.5]];portConstraint=eastwest;whiteSpace=wrap;html=1;fontStyle=4" parent="fEWmQViv0Enz_nrROp1N-30" vertex="1">
          <mxGeometry y="86" width="290" height="26" as="geometry" />
        </mxCell>
        <mxCell id="fEWmQViv0Enz_nrROp1N-35" value="+ Eliminar (tNacional : Nacional)" style="text;strokeColor=none;fillColor=none;align=left;verticalAlign=top;spacingLeft=4;spacingRight=4;overflow=hidden;rotatable=0;points=[[0,0.5],[1,0.5]];portConstraint=eastwest;whiteSpace=wrap;html=1;fontStyle=4" parent="fEWmQViv0Enz_nrROp1N-30" vertex="1">
          <mxGeometry y="112" width="290" height="26" as="geometry" />
        </mxCell>
        <mxCell id="fEWmQViv0Enz_nrROp1N-36" value="+ Buscar (tNacional : string) : Nacional" style="text;strokeColor=none;fillColor=none;align=left;verticalAlign=top;spacingLeft=4;spacingRight=4;overflow=hidden;rotatable=0;points=[[0,0.5],[1,0.5]];portConstraint=eastwest;whiteSpace=wrap;html=1;fontStyle=4" parent="fEWmQViv0Enz_nrROp1N-30" vertex="1">
          <mxGeometry y="138" width="290" height="26" as="geometry" />
        </mxCell>
        <mxCell id="fEWmQViv0Enz_nrROp1N-37" value="&lt;u&gt;+ ListarTerminalesNacionales() : Lista de Nacionales&lt;/u&gt;" style="text;strokeColor=none;fillColor=none;align=left;verticalAlign=top;spacingLeft=4;spacingRight=4;overflow=hidden;rotatable=0;points=[[0,0.5],[1,0.5]];portConstraint=eastwest;whiteSpace=wrap;html=1;" parent="fEWmQViv0Enz_nrROp1N-30" vertex="1">
          <mxGeometry y="164" width="290" height="26" as="geometry" />
        </mxCell>
        <mxCell id="fEWmQViv0Enz_nrROp1N-38" value="PersistenciaViaje" style="swimlane;fontStyle=1;align=center;verticalAlign=top;childLayout=stackLayout;horizontal=1;startSize=26;horizontalStack=0;resizeParent=1;resizeParentMax=0;resizeLast=0;collapsible=1;marginBottom=0;whiteSpace=wrap;html=1;rounded=1;" parent="1" vertex="1">
          <mxGeometry x="980" y="414" width="310" height="112" as="geometry" />
        </mxCell>
        <mxCell id="fEWmQViv0Enz_nrROp1N-232" value="&lt;span&gt;&lt;font style=&quot;background-color: rgb(255, 255, 255);&quot; color=&quot;#ffffff&quot;&gt;-&lt;/font&gt;&lt;/span&gt;" style="text;strokeColor=none;fillColor=none;align=left;verticalAlign=top;spacingLeft=4;spacingRight=4;overflow=hidden;rotatable=0;points=[[0,0.5],[1,0.5]];portConstraint=eastwest;whiteSpace=wrap;html=1;fontStyle=0" parent="fEWmQViv0Enz_nrROp1N-38" vertex="1">
          <mxGeometry y="26" width="310" height="26" as="geometry" />
        </mxCell>
        <mxCell id="fEWmQViv0Enz_nrROp1N-40" value="" style="line;strokeWidth=1;fillColor=none;align=left;verticalAlign=middle;spacingTop=-1;spacingLeft=3;spacingRight=3;rotatable=0;labelPosition=right;points=[];portConstraint=eastwest;strokeColor=inherit;" parent="fEWmQViv0Enz_nrROp1N-38" vertex="1">
          <mxGeometry y="52" width="310" height="8" as="geometry" />
        </mxCell>
        <mxCell id="fEWmQViv0Enz_nrROp1N-39" value="&lt;u&gt;+ Agregar (pViaje :&amp;nbsp;&lt;/u&gt;&lt;u style=&quot;border-color: var(--border-color);&quot;&gt;Viaje&lt;/u&gt;&lt;u&gt;) : int&lt;/u&gt;" style="text;strokeColor=none;fillColor=none;align=left;verticalAlign=top;spacingLeft=4;spacingRight=4;overflow=hidden;rotatable=0;points=[[0,0.5],[1,0.5]];portConstraint=eastwest;whiteSpace=wrap;html=1;" parent="fEWmQViv0Enz_nrROp1N-38" vertex="1">
          <mxGeometry y="60" width="310" height="26" as="geometry" />
        </mxCell>
        <mxCell id="fEWmQViv0Enz_nrROp1N-41" value="+ ListarViajes(codTerminal : string, mes : int&amp;nbsp;, anio : int)" style="text;strokeColor=none;fillColor=none;align=left;verticalAlign=top;spacingLeft=4;spacingRight=4;overflow=hidden;rotatable=0;points=[[0,0.5],[1,0.5]];portConstraint=eastwest;whiteSpace=wrap;html=1;fontStyle=4" parent="fEWmQViv0Enz_nrROp1N-38" vertex="1">
          <mxGeometry y="86" width="310" height="26" as="geometry" />
        </mxCell>
        <mxCell id="fEWmQViv0Enz_nrROp1N-42" value="" style="endArrow=none;dashed=1;html=1;rounded=1;exitX=0;exitY=0.25;exitDx=0;exitDy=0;entryX=0.501;entryY=1.041;entryDx=0;entryDy=0;entryPerimeter=0;startArrow=openThin;startFill=0;strokeWidth=1.5;" parent="1" source="fEWmQViv0Enz_nrROp1N-5" target="fEWmQViv0Enz_nrROp1N-14" edge="1">
          <mxGeometry width="50" height="50" relative="1" as="geometry">
            <mxPoint x="170" y="790" as="sourcePoint" />
            <mxPoint x="170" y="610" as="targetPoint" />
            <Array as="points">
              <mxPoint x="170" y="730" />
            </Array>
          </mxGeometry>
        </mxCell>
        <mxCell id="fEWmQViv0Enz_nrROp1N-44" value="" style="endArrow=none;dashed=1;html=1;rounded=1;startArrow=openThin;startFill=0;exitX=1;exitY=0.25;exitDx=0;exitDy=0;entryX=0.5;entryY=1;entryDx=0;entryDy=0;strokeWidth=1.5;" parent="1" source="fEWmQViv0Enz_nrROp1N-5" target="fEWmQViv0Enz_nrROp1N-38" edge="1">
          <mxGeometry width="50" height="50" relative="1" as="geometry">
            <mxPoint x="1000" y="690" as="sourcePoint" />
            <mxPoint x="1130" y="530" as="targetPoint" />
            <Array as="points">
              <mxPoint x="1130" y="730" />
            </Array>
          </mxGeometry>
        </mxCell>
        <mxCell id="fEWmQViv0Enz_nrROp1N-45" value="" style="endArrow=none;dashed=1;html=1;startArrow=openThin;startFill=0;entryX=0.536;entryY=1.07;entryDx=0;entryDy=0;entryPerimeter=0;exitX=0.75;exitY=0;exitDx=0;exitDy=0;strokeColor=default;rounded=1;strokeWidth=1.5;" parent="1" source="fEWmQViv0Enz_nrROp1N-5" target="fEWmQViv0Enz_nrROp1N-37" edge="1">
          <mxGeometry width="50" height="50" relative="1" as="geometry">
            <mxPoint x="830" y="710" as="sourcePoint" />
            <mxPoint x="825" y="414" as="targetPoint" />
            <Array as="points">
              <mxPoint x="698" y="680" />
              <mxPoint x="825" y="680" />
            </Array>
          </mxGeometry>
        </mxCell>
        <mxCell id="fEWmQViv0Enz_nrROp1N-46" value="" style="endArrow=none;dashed=1;html=1;rounded=1;startArrow=openThin;startFill=0;entryX=0.501;entryY=1.036;entryDx=0;entryDy=0;exitX=0.25;exitY=0;exitDx=0;exitDy=0;entryPerimeter=0;strokeWidth=1.5;" parent="1" source="fEWmQViv0Enz_nrROp1N-5" target="fEWmQViv0Enz_nrROp1N-29" edge="1">
          <mxGeometry width="50" height="50" relative="1" as="geometry">
            <mxPoint x="670" y="670" as="sourcePoint" />
            <mxPoint x="460" y="590" as="targetPoint" />
            <Array as="points">
              <mxPoint x="623" y="680" />
              <mxPoint x="480" y="680" />
            </Array>
          </mxGeometry>
        </mxCell>
        <mxCell id="fEWmQViv0Enz_nrROp1N-47" value="" style="endArrow=none;dashed=1;html=1;rounded=1;startArrow=openThin;startFill=0;exitX=0.5;exitY=0;exitDx=0;exitDy=0;strokeWidth=1.5;" parent="1" source="fEWmQViv0Enz_nrROp1N-30" edge="1">
          <mxGeometry width="50" height="50" relative="1" as="geometry">
            <mxPoint x="800" y="230" as="sourcePoint" />
            <mxPoint x="660" y="120" as="targetPoint" />
            <Array as="points">
              <mxPoint x="815" y="120" />
              <mxPoint x="655" y="120" />
            </Array>
          </mxGeometry>
        </mxCell>
        <mxCell id="fEWmQViv0Enz_nrROp1N-58" value="LogicaCompanias" style="swimlane;fontStyle=1;align=center;verticalAlign=top;childLayout=stackLayout;horizontal=1;startSize=26;horizontalStack=0;resizeParent=1;resizeParentMax=0;resizeLast=0;collapsible=1;marginBottom=0;whiteSpace=wrap;html=1;rounded=1;" parent="1" vertex="1">
          <mxGeometry x="180" y="-160" width="240" height="190" as="geometry" />
        </mxCell>
        <mxCell id="fEWmQViv0Enz_nrROp1N-59" value="&lt;font color=&quot;#ffffff&quot;&gt;-&lt;/font&gt;" style="text;strokeColor=none;fillColor=none;align=left;verticalAlign=top;spacingLeft=4;spacingRight=4;overflow=hidden;rotatable=0;points=[[0,0.5],[1,0.5]];portConstraint=eastwest;whiteSpace=wrap;html=1;" parent="fEWmQViv0Enz_nrROp1N-58" vertex="1">
          <mxGeometry y="26" width="240" height="26" as="geometry" />
        </mxCell>
        <mxCell id="fEWmQViv0Enz_nrROp1N-60" value="" style="line;strokeWidth=1;fillColor=none;align=left;verticalAlign=middle;spacingTop=-1;spacingLeft=3;spacingRight=3;rotatable=0;labelPosition=right;points=[];portConstraint=eastwest;strokeColor=inherit;" parent="fEWmQViv0Enz_nrROp1N-58" vertex="1">
          <mxGeometry y="52" width="240" height="8" as="geometry" />
        </mxCell>
        <mxCell id="fEWmQViv0Enz_nrROp1N-61" value="&lt;u&gt;+ Agregar (cCompania : Compania)&lt;/u&gt;" style="text;strokeColor=none;fillColor=none;align=left;verticalAlign=top;spacingLeft=4;spacingRight=4;overflow=hidden;rotatable=0;points=[[0,0.5],[1,0.5]];portConstraint=eastwest;whiteSpace=wrap;html=1;" parent="fEWmQViv0Enz_nrROp1N-58" vertex="1">
          <mxGeometry y="60" width="240" height="26" as="geometry" />
        </mxCell>
        <mxCell id="fEWmQViv0Enz_nrROp1N-62" value="&lt;u&gt;+ Modificar (cCompania : Compania)&lt;/u&gt;" style="text;strokeColor=none;fillColor=none;align=left;verticalAlign=top;spacingLeft=4;spacingRight=4;overflow=hidden;rotatable=0;points=[[0,0.5],[1,0.5]];portConstraint=eastwest;whiteSpace=wrap;html=1;" parent="fEWmQViv0Enz_nrROp1N-58" vertex="1">
          <mxGeometry y="86" width="240" height="26" as="geometry" />
        </mxCell>
        <mxCell id="fEWmQViv0Enz_nrROp1N-63" value="&lt;u&gt;+ Eliminar (cCompania : Compania)&lt;/u&gt;" style="text;strokeColor=none;fillColor=none;align=left;verticalAlign=top;spacingLeft=4;spacingRight=4;overflow=hidden;rotatable=0;points=[[0,0.5],[1,0.5]];portConstraint=eastwest;whiteSpace=wrap;html=1;" parent="fEWmQViv0Enz_nrROp1N-58" vertex="1">
          <mxGeometry y="112" width="240" height="26" as="geometry" />
        </mxCell>
        <mxCell id="fEWmQViv0Enz_nrROp1N-64" value="&lt;u&gt;+ Buscar (cCompania : string) : Compania&lt;/u&gt;" style="text;strokeColor=none;fillColor=none;align=left;verticalAlign=top;spacingLeft=4;spacingRight=4;overflow=hidden;rotatable=0;points=[[0,0.5],[1,0.5]];portConstraint=eastwest;whiteSpace=wrap;html=1;" parent="fEWmQViv0Enz_nrROp1N-58" vertex="1">
          <mxGeometry y="138" width="240" height="26" as="geometry" />
        </mxCell>
        <mxCell id="fEWmQViv0Enz_nrROp1N-65" value="&lt;u&gt;+ ListarCompanias() : Lista de Companias&lt;/u&gt;" style="text;strokeColor=none;fillColor=none;align=left;verticalAlign=top;spacingLeft=4;spacingRight=4;overflow=hidden;rotatable=0;points=[[0,0.5],[1,0.5]];portConstraint=eastwest;whiteSpace=wrap;html=1;" parent="fEWmQViv0Enz_nrROp1N-58" vertex="1">
          <mxGeometry y="164" width="240" height="26" as="geometry" />
        </mxCell>
        <mxCell id="fEWmQViv0Enz_nrROp1N-66" value="LogicaTerminales" style="swimlane;fontStyle=1;align=center;verticalAlign=top;childLayout=stackLayout;horizontal=1;startSize=26;horizontalStack=0;resizeParent=1;resizeParentMax=0;resizeLast=0;collapsible=1;marginBottom=0;whiteSpace=wrap;html=1;rounded=1;" parent="1" vertex="1">
          <mxGeometry x="530" y="-160" width="250" height="190" as="geometry" />
        </mxCell>
        <mxCell id="fEWmQViv0Enz_nrROp1N-73" value="&lt;font color=&quot;#ffffff&quot;&gt;-&lt;/font&gt;" style="text;strokeColor=none;fillColor=none;align=left;verticalAlign=top;spacingLeft=4;spacingRight=4;overflow=hidden;rotatable=0;points=[[0,0.5],[1,0.5]];portConstraint=eastwest;whiteSpace=wrap;html=1;fontStyle=0" parent="fEWmQViv0Enz_nrROp1N-66" vertex="1">
          <mxGeometry y="26" width="250" height="26" as="geometry" />
        </mxCell>
        <mxCell id="fEWmQViv0Enz_nrROp1N-68" value="" style="line;strokeWidth=1;fillColor=none;align=left;verticalAlign=middle;spacingTop=-1;spacingLeft=3;spacingRight=3;rotatable=0;labelPosition=right;points=[];portConstraint=eastwest;strokeColor=inherit;" parent="fEWmQViv0Enz_nrROp1N-66" vertex="1">
          <mxGeometry y="52" width="250" height="8" as="geometry" />
        </mxCell>
        <mxCell id="fEWmQViv0Enz_nrROp1N-71" value="+ Agregar (pTerminal : Terminal)" style="text;strokeColor=none;fillColor=none;align=left;verticalAlign=top;spacingLeft=4;spacingRight=4;overflow=hidden;rotatable=0;points=[[0,0.5],[1,0.5]];portConstraint=eastwest;whiteSpace=wrap;html=1;fontStyle=4" parent="fEWmQViv0Enz_nrROp1N-66" vertex="1">
          <mxGeometry y="60" width="250" height="26" as="geometry" />
        </mxCell>
        <mxCell id="fEWmQViv0Enz_nrROp1N-69" value="+ Modificar (pTerminal : Terminal)" style="text;strokeColor=none;fillColor=none;align=left;verticalAlign=top;spacingLeft=4;spacingRight=4;overflow=hidden;rotatable=0;points=[[0,0.5],[1,0.5]];portConstraint=eastwest;whiteSpace=wrap;html=1;fontStyle=4" parent="fEWmQViv0Enz_nrROp1N-66" vertex="1">
          <mxGeometry y="86" width="250" height="26" as="geometry" />
        </mxCell>
        <mxCell id="fEWmQViv0Enz_nrROp1N-70" value="+ Eliminar (pTerminal : Terminal)" style="text;strokeColor=none;fillColor=none;align=left;verticalAlign=top;spacingLeft=4;spacingRight=4;overflow=hidden;rotatable=0;points=[[0,0.5],[1,0.5]];portConstraint=eastwest;whiteSpace=wrap;html=1;fontStyle=4" parent="fEWmQViv0Enz_nrROp1N-66" vertex="1">
          <mxGeometry y="112" width="250" height="26" as="geometry" />
        </mxCell>
        <mxCell id="fEWmQViv0Enz_nrROp1N-72" value="+ Buscar (pCodigo : string) : Terminal" style="text;strokeColor=none;fillColor=none;align=left;verticalAlign=top;spacingLeft=4;spacingRight=4;overflow=hidden;rotatable=0;points=[[0,0.5],[1,0.5]];portConstraint=eastwest;whiteSpace=wrap;html=1;fontStyle=4" parent="fEWmQViv0Enz_nrROp1N-66" vertex="1">
          <mxGeometry y="138" width="250" height="26" as="geometry" />
        </mxCell>
        <mxCell id="fEWmQViv0Enz_nrROp1N-74" value="&amp;nbsp;+ ListarTerminales() : Lista de Terminales" style="text;strokeColor=none;fillColor=none;align=left;verticalAlign=top;spacingLeft=4;spacingRight=4;overflow=hidden;rotatable=0;points=[[0,0.5],[1,0.5]];portConstraint=eastwest;whiteSpace=wrap;html=1;fontStyle=4" parent="fEWmQViv0Enz_nrROp1N-66" vertex="1">
          <mxGeometry y="164" width="250" height="26" as="geometry" />
        </mxCell>
        <mxCell id="fEWmQViv0Enz_nrROp1N-75" value="LogicaViajes" style="swimlane;fontStyle=1;align=center;verticalAlign=top;childLayout=stackLayout;horizontal=1;startSize=26;horizontalStack=0;resizeParent=1;resizeParentMax=0;resizeLast=0;collapsible=1;marginBottom=0;whiteSpace=wrap;html=1;rounded=1;" parent="1" vertex="1">
          <mxGeometry x="850" y="-160" width="520" height="112" as="geometry" />
        </mxCell>
        <mxCell id="fEWmQViv0Enz_nrROp1N-231" value="&lt;font color=&quot;#ffffff&quot;&gt;-&lt;/font&gt;" style="text;strokeColor=none;fillColor=none;align=left;verticalAlign=top;spacingLeft=4;spacingRight=4;overflow=hidden;rotatable=0;points=[[0,0.5],[1,0.5]];portConstraint=eastwest;whiteSpace=wrap;html=1;" parent="fEWmQViv0Enz_nrROp1N-75" vertex="1">
          <mxGeometry y="26" width="520" height="26" as="geometry" />
        </mxCell>
        <mxCell id="fEWmQViv0Enz_nrROp1N-77" value="" style="line;strokeWidth=1;fillColor=none;align=left;verticalAlign=middle;spacingTop=-1;spacingLeft=3;spacingRight=3;rotatable=0;labelPosition=right;points=[];portConstraint=eastwest;strokeColor=inherit;" parent="fEWmQViv0Enz_nrROp1N-75" vertex="1">
          <mxGeometry y="52" width="520" height="8" as="geometry" />
        </mxCell>
        <mxCell id="fEWmQViv0Enz_nrROp1N-76" value="&lt;u&gt;+ Agregar(pViaje : Viaje) : int&lt;/u&gt;" style="text;strokeColor=none;fillColor=none;align=left;verticalAlign=top;spacingLeft=4;spacingRight=4;overflow=hidden;rotatable=0;points=[[0,0.5],[1,0.5]];portConstraint=eastwest;whiteSpace=wrap;html=1;" parent="fEWmQViv0Enz_nrROp1N-75" vertex="1">
          <mxGeometry y="60" width="520" height="26" as="geometry" />
        </mxCell>
        <mxCell id="fEWmQViv0Enz_nrROp1N-78" value="&lt;u&gt;+ ListarViajesPorTerminalMesAnio(codigoTerminal : string, mes : int, anio : int) : Lista de Viajes&lt;/u&gt;" style="text;strokeColor=none;fillColor=none;align=left;verticalAlign=top;spacingLeft=4;spacingRight=4;overflow=hidden;rotatable=0;points=[[0,0.5],[1,0.5]];portConstraint=eastwest;whiteSpace=wrap;html=1;" parent="fEWmQViv0Enz_nrROp1N-75" vertex="1">
          <mxGeometry y="86" width="520" height="26" as="geometry" />
        </mxCell>
        <mxCell id="fEWmQViv0Enz_nrROp1N-81" value="" style="endArrow=none;dashed=1;html=1;rounded=1;startArrow=openThin;startFill=0;entryX=1;entryY=0;entryDx=0;entryDy=0;exitX=0.775;exitY=0;exitDx=0;exitDy=0;fillColor=#fa6800;strokeColor=#C73500;exitPerimeter=0;strokeWidth=1.5;" parent="1" source="fEWmQViv0Enz_nrROp1N-9" target="fEWmQViv0Enz_nrROp1N-38" edge="1">
          <mxGeometry width="50" height="50" relative="1" as="geometry">
            <mxPoint x="840" y="170" as="sourcePoint" />
            <mxPoint x="890" y="110" as="targetPoint" />
            <Array as="points">
              <mxPoint x="236" y="330" />
              <mxPoint x="1290" y="330" />
            </Array>
          </mxGeometry>
        </mxCell>
        <mxCell id="fEWmQViv0Enz_nrROp1N-80" value="" style="endArrow=none;dashed=1;html=1;rounded=1;startArrow=openThin;startFill=0;entryX=0.25;entryY=0;entryDx=0;entryDy=0;exitX=0.75;exitY=0;exitDx=0;exitDy=0;fillColor=#fa6800;strokeColor=#C73500;strokeWidth=1.5;" parent="1" source="fEWmQViv0Enz_nrROp1N-30" target="fEWmQViv0Enz_nrROp1N-38" edge="1">
          <mxGeometry width="50" height="50" relative="1" as="geometry">
            <mxPoint x="970" y="390" as="sourcePoint" />
            <mxPoint x="1020" y="330" as="targetPoint" />
            <Array as="points">
              <mxPoint x="888" y="390" />
              <mxPoint x="1057" y="390" />
            </Array>
          </mxGeometry>
        </mxCell>
        <mxCell id="fEWmQViv0Enz_nrROp1N-82" value="" style="endArrow=none;dashed=1;html=1;rounded=1;startArrow=openThin;startFill=0;entryX=0.75;entryY=0;entryDx=0;entryDy=0;fillColor=#fa6800;strokeColor=#C73500;exitX=0.25;exitY=0;exitDx=0;exitDy=0;strokeWidth=1.5;" parent="1" source="fEWmQViv0Enz_nrROp1N-20" target="fEWmQViv0Enz_nrROp1N-38" edge="1">
          <mxGeometry width="50" height="50" relative="1" as="geometry">
            <mxPoint x="480" y="414" as="sourcePoint" />
            <mxPoint x="1020" y="100" as="targetPoint" />
            <Array as="points">
              <mxPoint x="395" y="360" />
              <mxPoint x="1212" y="360" />
            </Array>
          </mxGeometry>
        </mxCell>
        <mxCell id="fEWmQViv0Enz_nrROp1N-83" value="" style="endArrow=none;dashed=1;html=1;rounded=1;startArrow=openThin;startFill=0;exitX=0.5;exitY=0;exitDx=0;exitDy=0;strokeWidth=1.5;" parent="1" source="fEWmQViv0Enz_nrROp1N-20" edge="1">
          <mxGeometry width="50" height="50" relative="1" as="geometry">
            <mxPoint x="390" y="210" as="sourcePoint" />
            <mxPoint x="660" y="120" as="targetPoint" />
            <Array as="points">
              <mxPoint x="480" y="120" />
            </Array>
          </mxGeometry>
        </mxCell>
        <mxCell id="fEWmQViv0Enz_nrROp1N-84" value="" style="endArrow=none;dashed=1;html=1;rounded=0;entryX=0.5;entryY=0.97;entryDx=0;entryDy=0;entryPerimeter=0;strokeWidth=1.5;" parent="1" target="fEWmQViv0Enz_nrROp1N-74" edge="1">
          <mxGeometry width="50" height="50" relative="1" as="geometry">
            <mxPoint x="655" y="120" as="sourcePoint" />
            <mxPoint x="655" y="30" as="targetPoint" />
          </mxGeometry>
        </mxCell>
        <mxCell id="fEWmQViv0Enz_nrROp1N-86" value="" style="endArrow=none;dashed=1;html=1;rounded=1;startArrow=openThin;startFill=0;entryX=0.501;entryY=0.976;entryDx=0;entryDy=0;entryPerimeter=0;strokeWidth=1.5;" parent="1" source="fEWmQViv0Enz_nrROp1N-38" target="fEWmQViv0Enz_nrROp1N-78" edge="1">
          <mxGeometry width="50" height="50" relative="1" as="geometry">
            <mxPoint x="1150" y="210" as="sourcePoint" />
            <mxPoint x="1065" y="-70" as="targetPoint" />
            <Array as="points">
              <mxPoint x="1130" y="120" />
              <mxPoint x="1110" y="120" />
            </Array>
          </mxGeometry>
        </mxCell>
        <mxCell id="fEWmQViv0Enz_nrROp1N-87" value="" style="endArrow=none;dashed=1;html=1;rounded=1;startArrow=openThin;startFill=0;entryX=0.504;entryY=1.115;entryDx=0;entryDy=0;exitX=0.5;exitY=0;exitDx=0;exitDy=0;entryPerimeter=0;strokeWidth=1.5;" parent="1" source="fEWmQViv0Enz_nrROp1N-9" target="fEWmQViv0Enz_nrROp1N-65" edge="1">
          <mxGeometry width="50" height="50" relative="1" as="geometry">
            <mxPoint x="300" y="250" as="sourcePoint" />
            <mxPoint x="330" y="70" as="targetPoint" />
            <Array as="points">
              <mxPoint x="170" y="160" />
              <mxPoint x="300" y="160" />
            </Array>
          </mxGeometry>
        </mxCell>
        <mxCell id="fEWmQViv0Enz_nrROp1N-90" value="Compania" style="swimlane;fontStyle=1;align=center;verticalAlign=top;childLayout=stackLayout;horizontal=1;startSize=26;horizontalStack=0;resizeParent=1;resizeParentMax=0;resizeLast=0;collapsible=1;marginBottom=0;whiteSpace=wrap;html=1;rounded=1;" parent="1" vertex="1">
          <mxGeometry x="1771" y="-270" width="150" height="138" as="geometry" />
        </mxCell>
        <mxCell id="fEWmQViv0Enz_nrROp1N-91" value="- nombre : string" style="text;strokeColor=none;fillColor=none;align=left;verticalAlign=top;spacingLeft=4;spacingRight=4;overflow=hidden;rotatable=0;points=[[0,0.5],[1,0.5]];portConstraint=eastwest;whiteSpace=wrap;html=1;" parent="fEWmQViv0Enz_nrROp1N-90" vertex="1">
          <mxGeometry y="26" width="150" height="26" as="geometry" />
        </mxCell>
        <mxCell id="fEWmQViv0Enz_nrROp1N-94" value="- direccion : string" style="text;strokeColor=none;fillColor=none;align=left;verticalAlign=top;spacingLeft=4;spacingRight=4;overflow=hidden;rotatable=0;points=[[0,0.5],[1,0.5]];portConstraint=eastwest;whiteSpace=wrap;html=1;" parent="fEWmQViv0Enz_nrROp1N-90" vertex="1">
          <mxGeometry y="52" width="150" height="26" as="geometry" />
        </mxCell>
        <mxCell id="fEWmQViv0Enz_nrROp1N-95" value="- telefono : string" style="text;strokeColor=none;fillColor=none;align=left;verticalAlign=top;spacingLeft=4;spacingRight=4;overflow=hidden;rotatable=0;points=[[0,0.5],[1,0.5]];portConstraint=eastwest;whiteSpace=wrap;html=1;" parent="fEWmQViv0Enz_nrROp1N-90" vertex="1">
          <mxGeometry y="78" width="150" height="26" as="geometry" />
        </mxCell>
        <mxCell id="fEWmQViv0Enz_nrROp1N-92" value="" style="line;strokeWidth=1;fillColor=none;align=left;verticalAlign=middle;spacingTop=-1;spacingLeft=3;spacingRight=3;rotatable=0;labelPosition=right;points=[];portConstraint=eastwest;strokeColor=inherit;" parent="fEWmQViv0Enz_nrROp1N-90" vertex="1">
          <mxGeometry y="104" width="150" height="8" as="geometry" />
        </mxCell>
        <mxCell id="fEWmQViv0Enz_nrROp1N-93" value="+ toString() : string" style="text;strokeColor=none;fillColor=none;align=left;verticalAlign=top;spacingLeft=4;spacingRight=4;overflow=hidden;rotatable=0;points=[[0,0.5],[1,0.5]];portConstraint=eastwest;whiteSpace=wrap;html=1;" parent="fEWmQViv0Enz_nrROp1N-90" vertex="1">
          <mxGeometry y="112" width="150" height="26" as="geometry" />
        </mxCell>
        <mxCell id="fEWmQViv0Enz_nrROp1N-96" value="Internacional" style="swimlane;fontStyle=1;align=center;verticalAlign=top;childLayout=stackLayout;horizontal=1;startSize=26;horizontalStack=0;resizeParent=1;resizeParentMax=0;resizeLast=0;collapsible=1;marginBottom=0;whiteSpace=wrap;html=1;rounded=1;" parent="1" vertex="1">
          <mxGeometry x="1671" y="600" width="150" height="86" as="geometry" />
        </mxCell>
        <mxCell id="fEWmQViv0Enz_nrROp1N-97" value="- pais : string" style="text;strokeColor=none;fillColor=none;align=left;verticalAlign=top;spacingLeft=4;spacingRight=4;overflow=hidden;rotatable=0;points=[[0,0.5],[1,0.5]];portConstraint=eastwest;whiteSpace=wrap;html=1;" parent="fEWmQViv0Enz_nrROp1N-96" vertex="1">
          <mxGeometry y="26" width="150" height="26" as="geometry" />
        </mxCell>
        <mxCell id="fEWmQViv0Enz_nrROp1N-100" value="" style="line;strokeWidth=1;fillColor=none;align=left;verticalAlign=middle;spacingTop=-1;spacingLeft=3;spacingRight=3;rotatable=0;labelPosition=right;points=[];portConstraint=eastwest;strokeColor=inherit;" parent="fEWmQViv0Enz_nrROp1N-96" vertex="1">
          <mxGeometry y="52" width="150" height="8" as="geometry" />
        </mxCell>
        <mxCell id="fEWmQViv0Enz_nrROp1N-101" value="+ toString() : string" style="text;strokeColor=none;fillColor=none;align=left;verticalAlign=top;spacingLeft=4;spacingRight=4;overflow=hidden;rotatable=0;points=[[0,0.5],[1,0.5]];portConstraint=eastwest;whiteSpace=wrap;html=1;" parent="fEWmQViv0Enz_nrROp1N-96" vertex="1">
          <mxGeometry y="60" width="150" height="26" as="geometry" />
        </mxCell>
        <mxCell id="fEWmQViv0Enz_nrROp1N-102" value="Terminal" style="swimlane;fontStyle=1;align=center;verticalAlign=top;childLayout=stackLayout;horizontal=1;startSize=26;horizontalStack=0;resizeParent=1;resizeParentMax=0;resizeLast=0;collapsible=1;marginBottom=0;whiteSpace=wrap;html=1;rounded=1;" parent="1" vertex="1">
          <mxGeometry x="1771" y="400" width="150" height="112" as="geometry" />
        </mxCell>
        <mxCell id="fEWmQViv0Enz_nrROp1N-103" value="- codigo : string" style="text;strokeColor=none;fillColor=none;align=left;verticalAlign=top;spacingLeft=4;spacingRight=4;overflow=hidden;rotatable=0;points=[[0,0.5],[1,0.5]];portConstraint=eastwest;whiteSpace=wrap;html=1;" parent="fEWmQViv0Enz_nrROp1N-102" vertex="1">
          <mxGeometry y="26" width="150" height="26" as="geometry" />
        </mxCell>
        <mxCell id="fEWmQViv0Enz_nrROp1N-104" value="- ciudad : string" style="text;strokeColor=none;fillColor=none;align=left;verticalAlign=top;spacingLeft=4;spacingRight=4;overflow=hidden;rotatable=0;points=[[0,0.5],[1,0.5]];portConstraint=eastwest;whiteSpace=wrap;html=1;" parent="fEWmQViv0Enz_nrROp1N-102" vertex="1">
          <mxGeometry y="52" width="150" height="26" as="geometry" />
        </mxCell>
        <mxCell id="fEWmQViv0Enz_nrROp1N-106" value="" style="line;strokeWidth=1;fillColor=none;align=left;verticalAlign=middle;spacingTop=-1;spacingLeft=3;spacingRight=3;rotatable=0;labelPosition=right;points=[];portConstraint=eastwest;strokeColor=inherit;" parent="fEWmQViv0Enz_nrROp1N-102" vertex="1">
          <mxGeometry y="78" width="150" height="8" as="geometry" />
        </mxCell>
        <mxCell id="fEWmQViv0Enz_nrROp1N-107" value="+ toString() : string" style="text;strokeColor=none;fillColor=none;align=left;verticalAlign=top;spacingLeft=4;spacingRight=4;overflow=hidden;rotatable=0;points=[[0,0.5],[1,0.5]];portConstraint=eastwest;whiteSpace=wrap;html=1;" parent="fEWmQViv0Enz_nrROp1N-102" vertex="1">
          <mxGeometry y="86" width="150" height="26" as="geometry" />
        </mxCell>
        <mxCell id="fEWmQViv0Enz_nrROp1N-113" value="" style="endArrow=none;html=1;rounded=0;entryX=0.505;entryY=1.013;entryDx=0;entryDy=0;entryPerimeter=0;startArrow=block;startFill=0;startSize=18;exitX=0.505;exitY=1.013;exitDx=0;exitDy=0;exitPerimeter=0;" parent="fEWmQViv0Enz_nrROp1N-102" source="fEWmQViv0Enz_nrROp1N-107" edge="1">
          <mxGeometry width="50" height="50" relative="1" as="geometry">
            <mxPoint x="80" y="340" as="sourcePoint" />
            <mxPoint x="75" y="160" as="targetPoint" />
          </mxGeometry>
        </mxCell>
        <mxCell id="fEWmQViv0Enz_nrROp1N-108" value="Nacional&lt;br&gt;" style="swimlane;fontStyle=1;align=center;verticalAlign=top;childLayout=stackLayout;horizontal=1;startSize=26;horizontalStack=0;resizeParent=1;resizeParentMax=0;resizeLast=0;collapsible=1;marginBottom=0;whiteSpace=wrap;html=1;rounded=1;" parent="1" vertex="1">
          <mxGeometry x="1881" y="600" width="150" height="86" as="geometry" />
        </mxCell>
        <mxCell id="fEWmQViv0Enz_nrROp1N-109" value="- taxi : bool" style="text;strokeColor=none;fillColor=none;align=left;verticalAlign=top;spacingLeft=4;spacingRight=4;overflow=hidden;rotatable=0;points=[[0,0.5],[1,0.5]];portConstraint=eastwest;whiteSpace=wrap;html=1;" parent="fEWmQViv0Enz_nrROp1N-108" vertex="1">
          <mxGeometry y="26" width="150" height="26" as="geometry" />
        </mxCell>
        <mxCell id="fEWmQViv0Enz_nrROp1N-110" value="" style="line;strokeWidth=1;fillColor=none;align=left;verticalAlign=middle;spacingTop=-1;spacingLeft=3;spacingRight=3;rotatable=0;labelPosition=right;points=[];portConstraint=eastwest;strokeColor=inherit;" parent="fEWmQViv0Enz_nrROp1N-108" vertex="1">
          <mxGeometry y="52" width="150" height="8" as="geometry" />
        </mxCell>
        <mxCell id="fEWmQViv0Enz_nrROp1N-111" value="+ toString() : string" style="text;strokeColor=none;fillColor=none;align=left;verticalAlign=top;spacingLeft=4;spacingRight=4;overflow=hidden;rotatable=0;points=[[0,0.5],[1,0.5]];portConstraint=eastwest;whiteSpace=wrap;html=1;" parent="fEWmQViv0Enz_nrROp1N-108" vertex="1">
          <mxGeometry y="60" width="150" height="26" as="geometry" />
        </mxCell>
        <mxCell id="fEWmQViv0Enz_nrROp1N-112" value="" style="endArrow=none;html=1;entryX=0.5;entryY=0;entryDx=0;entryDy=0;exitX=0.5;exitY=0;exitDx=0;exitDy=0;rounded=1;" parent="1" source="fEWmQViv0Enz_nrROp1N-96" target="fEWmQViv0Enz_nrROp1N-108" edge="1">
          <mxGeometry width="50" height="50" relative="1" as="geometry">
            <mxPoint x="1711" y="560" as="sourcePoint" />
            <mxPoint x="1801" y="550" as="targetPoint" />
            <Array as="points">
              <mxPoint x="1746" y="560" />
              <mxPoint x="1956" y="560" />
            </Array>
          </mxGeometry>
        </mxCell>
        <mxCell id="fEWmQViv0Enz_nrROp1N-114" value="Viaje" style="swimlane;fontStyle=1;align=center;verticalAlign=top;childLayout=stackLayout;horizontal=1;startSize=26;horizontalStack=0;resizeParent=1;resizeParentMax=0;resizeLast=0;collapsible=1;marginBottom=0;whiteSpace=wrap;html=1;rounded=1;" parent="1" vertex="1">
          <mxGeometry x="1711" y="20" width="270" height="268" as="geometry" />
        </mxCell>
        <mxCell id="fEWmQViv0Enz_nrROp1N-115" value="- codigoViaje : long" style="text;strokeColor=none;fillColor=none;align=left;verticalAlign=top;spacingLeft=4;spacingRight=4;overflow=hidden;rotatable=0;points=[[0,0.5],[1,0.5]];portConstraint=eastwest;whiteSpace=wrap;html=1;" parent="fEWmQViv0Enz_nrROp1N-114" vertex="1">
          <mxGeometry y="26" width="270" height="26" as="geometry" />
        </mxCell>
        <mxCell id="fEWmQViv0Enz_nrROp1N-116" value="- fechaHoraSalida : DateTime" style="text;strokeColor=none;fillColor=none;align=left;verticalAlign=top;spacingLeft=4;spacingRight=4;overflow=hidden;rotatable=0;points=[[0,0.5],[1,0.5]];portConstraint=eastwest;whiteSpace=wrap;html=1;" parent="fEWmQViv0Enz_nrROp1N-114" vertex="1">
          <mxGeometry y="52" width="270" height="26" as="geometry" />
        </mxCell>
        <mxCell id="fEWmQViv0Enz_nrROp1N-120" value="- fechaHoraLlegada : DateTime" style="text;strokeColor=none;fillColor=none;align=left;verticalAlign=top;spacingLeft=4;spacingRight=4;overflow=hidden;rotatable=0;points=[[0,0.5],[1,0.5]];portConstraint=eastwest;whiteSpace=wrap;html=1;" parent="fEWmQViv0Enz_nrROp1N-114" vertex="1">
          <mxGeometry y="78" width="270" height="26" as="geometry" />
        </mxCell>
        <mxCell id="fEWmQViv0Enz_nrROp1N-121" value="- maxPasajeros : int" style="text;strokeColor=none;fillColor=none;align=left;verticalAlign=top;spacingLeft=4;spacingRight=4;overflow=hidden;rotatable=0;points=[[0,0.5],[1,0.5]];portConstraint=eastwest;whiteSpace=wrap;html=1;" parent="fEWmQViv0Enz_nrROp1N-114" vertex="1">
          <mxGeometry y="104" width="270" height="26" as="geometry" />
        </mxCell>
        <mxCell id="fEWmQViv0Enz_nrROp1N-122" value="- precioBoleto : double" style="text;strokeColor=none;fillColor=none;align=left;verticalAlign=top;spacingLeft=4;spacingRight=4;overflow=hidden;rotatable=0;points=[[0,0.5],[1,0.5]];portConstraint=eastwest;whiteSpace=wrap;html=1;" parent="fEWmQViv0Enz_nrROp1N-114" vertex="1">
          <mxGeometry y="130" width="270" height="26" as="geometry" />
        </mxCell>
        <mxCell id="fEWmQViv0Enz_nrROp1N-123" value="- anden : int" style="text;strokeColor=none;fillColor=none;align=left;verticalAlign=top;spacingLeft=4;spacingRight=4;overflow=hidden;rotatable=0;points=[[0,0.5],[1,0.5]];portConstraint=eastwest;whiteSpace=wrap;html=1;" parent="fEWmQViv0Enz_nrROp1N-114" vertex="1">
          <mxGeometry y="156" width="270" height="26" as="geometry" />
        </mxCell>
        <mxCell id="fEWmQViv0Enz_nrROp1N-117" value="- viajeTerm : Terminal" style="text;strokeColor=none;fillColor=none;align=left;verticalAlign=top;spacingLeft=4;spacingRight=4;overflow=hidden;rotatable=0;points=[[0,0.5],[1,0.5]];portConstraint=eastwest;whiteSpace=wrap;html=1;" parent="fEWmQViv0Enz_nrROp1N-114" vertex="1">
          <mxGeometry y="182" width="270" height="26" as="geometry" />
        </mxCell>
        <mxCell id="fEWmQViv0Enz_nrROp1N-124" value="- viajeComp : Compania" style="text;strokeColor=none;fillColor=none;align=left;verticalAlign=top;spacingLeft=4;spacingRight=4;overflow=hidden;rotatable=0;points=[[0,0.5],[1,0.5]];portConstraint=eastwest;whiteSpace=wrap;html=1;" parent="fEWmQViv0Enz_nrROp1N-114" vertex="1">
          <mxGeometry y="208" width="270" height="26" as="geometry" />
        </mxCell>
        <mxCell id="fEWmQViv0Enz_nrROp1N-118" value="" style="line;strokeWidth=1;fillColor=none;align=left;verticalAlign=middle;spacingTop=-1;spacingLeft=3;spacingRight=3;rotatable=0;labelPosition=right;points=[];portConstraint=eastwest;strokeColor=inherit;" parent="fEWmQViv0Enz_nrROp1N-114" vertex="1">
          <mxGeometry y="234" width="270" height="8" as="geometry" />
        </mxCell>
        <mxCell id="fEWmQViv0Enz_nrROp1N-119" value="+ toString() : string" style="text;strokeColor=none;fillColor=none;align=left;verticalAlign=top;spacingLeft=4;spacingRight=4;overflow=hidden;rotatable=0;points=[[0,0.5],[1,0.5]];portConstraint=eastwest;whiteSpace=wrap;html=1;" parent="fEWmQViv0Enz_nrROp1N-114" vertex="1">
          <mxGeometry y="242" width="270" height="26" as="geometry" />
        </mxCell>
        <mxCell id="fEWmQViv0Enz_nrROp1N-125" value="" style="endArrow=none;html=1;rounded=1;entryX=0;entryY=0.5;entryDx=0;entryDy=0;exitX=0;exitY=0.5;exitDx=0;exitDy=0;startArrow=openThin;startFill=0;" parent="1" source="fEWmQViv0Enz_nrROp1N-103" target="fEWmQViv0Enz_nrROp1N-115" edge="1">
          <mxGeometry width="50" height="50" relative="1" as="geometry">
            <mxPoint x="1671" y="500" as="sourcePoint" />
            <mxPoint x="1611" y="180" as="targetPoint" />
            <Array as="points">
              <mxPoint x="1671" y="440" />
              <mxPoint x="1671" y="59" />
            </Array>
          </mxGeometry>
        </mxCell>
        <mxCell id="fEWmQViv0Enz_nrROp1N-126" value="" style="endArrow=openThin;html=1;rounded=1;exitX=1;exitY=0.5;exitDx=0;exitDy=0;entryX=1;entryY=0.5;entryDx=0;entryDy=0;endFill=0;" parent="1" source="fEWmQViv0Enz_nrROp1N-115" target="fEWmQViv0Enz_nrROp1N-91" edge="1">
          <mxGeometry width="50" height="50" relative="1" as="geometry">
            <mxPoint x="2091" y="140" as="sourcePoint" />
            <mxPoint x="2131" y="-140" as="targetPoint" />
            <Array as="points">
              <mxPoint x="2021" y="59" />
              <mxPoint x="2021" y="-231" />
            </Array>
          </mxGeometry>
        </mxCell>
        <mxCell id="fEWmQViv0Enz_nrROp1N-127" value="1" style="text;html=1;strokeColor=none;fillColor=none;align=center;verticalAlign=middle;whiteSpace=wrap;rounded=0;" parent="1" vertex="1">
          <mxGeometry x="1741" y="410" width="30" height="26" as="geometry" />
        </mxCell>
        <mxCell id="fEWmQViv0Enz_nrROp1N-128" value="1" style="text;html=1;strokeColor=none;fillColor=none;align=center;verticalAlign=middle;whiteSpace=wrap;rounded=0;" parent="1" vertex="1">
          <mxGeometry x="1921" y="-230" width="30" height="26" as="geometry" />
        </mxCell>
        <mxCell id="fEWmQViv0Enz_nrROp1N-129" value="&lt;font style=&quot;font-size: 25px;&quot;&gt;*&lt;/font&gt;" style="text;html=1;strokeColor=none;fillColor=none;align=center;verticalAlign=middle;whiteSpace=wrap;rounded=0;" parent="1" vertex="1">
          <mxGeometry x="1981" y="34" width="30" height="26" as="geometry" />
        </mxCell>
        <mxCell id="fEWmQViv0Enz_nrROp1N-130" value="&lt;font style=&quot;font-size: 25px;&quot;&gt;*&lt;/font&gt;" style="text;html=1;strokeColor=none;fillColor=none;align=center;verticalAlign=middle;whiteSpace=wrap;rounded=0;" parent="1" vertex="1">
          <mxGeometry x="1671" y="60" width="30" height="26" as="geometry" />
        </mxCell>
        <mxCell id="fEWmQViv0Enz_nrROp1N-133" value="" style="endArrow=classicThin;dashed=1;html=1;rounded=0;exitX=0;exitY=0;exitDx=1465;exitDy=295;exitPerimeter=0;endFill=1;strokeWidth=2;entryX=0.002;entryY=0.255;entryDx=0;entryDy=0;entryPerimeter=0;" parent="1" edge="1">
          <mxGeometry width="50" height="50" relative="1" as="geometry">
            <mxPoint x="1420" y="-35" as="sourcePoint" />
            <mxPoint x="1561.1599999999999" y="-36.75" as="targetPoint" />
          </mxGeometry>
        </mxCell>
        <mxCell id="fEWmQViv0Enz_nrROp1N-134" value="" style="endArrow=classicThin;dashed=1;html=1;rounded=0;endFill=1;strokeWidth=2;entryX=0.003;entryY=0.772;entryDx=0;entryDy=0;entryPerimeter=0;" parent="1" edge="1">
          <mxGeometry width="50" height="50" relative="1" as="geometry">
            <mxPoint x="1420" y="557" as="sourcePoint" />
            <mxPoint x="1561.7400000000002" y="557.7999999999997" as="targetPoint" />
          </mxGeometry>
        </mxCell>
        <mxCell id="fEWmQViv0Enz_nrROp1N-135" value="Default" style="swimlane;fontStyle=1;align=center;verticalAlign=top;childLayout=stackLayout;horizontal=1;startSize=26;horizontalStack=0;resizeParent=1;resizeParentMax=0;resizeLast=0;collapsible=1;marginBottom=0;whiteSpace=wrap;html=1;rounded=1;" parent="1" vertex="1">
          <mxGeometry x="1195" y="-960" width="130" height="86" as="geometry" />
        </mxCell>
        <mxCell id="fEWmQViv0Enz_nrROp1N-136" value="&lt;font color=&quot;#ffffff&quot;&gt;-&lt;/font&gt;" style="text;strokeColor=none;fillColor=none;align=left;verticalAlign=top;spacingLeft=4;spacingRight=4;overflow=hidden;rotatable=0;points=[[0,0.5],[1,0.5]];portConstraint=eastwest;whiteSpace=wrap;html=1;" parent="fEWmQViv0Enz_nrROp1N-135" vertex="1">
          <mxGeometry y="26" width="130" height="26" as="geometry" />
        </mxCell>
        <mxCell id="fEWmQViv0Enz_nrROp1N-137" value="" style="line;strokeWidth=1;fillColor=none;align=left;verticalAlign=middle;spacingTop=-1;spacingLeft=3;spacingRight=3;rotatable=0;labelPosition=right;points=[];portConstraint=eastwest;strokeColor=inherit;" parent="fEWmQViv0Enz_nrROp1N-135" vertex="1">
          <mxGeometry y="52" width="130" height="8" as="geometry" />
        </mxCell>
        <mxCell id="fEWmQViv0Enz_nrROp1N-138" value="&lt;font color=&quot;#ffffff&quot;&gt;-&lt;/font&gt;" style="text;strokeColor=none;fillColor=none;align=left;verticalAlign=top;spacingLeft=4;spacingRight=4;overflow=hidden;rotatable=0;points=[[0,0.5],[1,0.5]];portConstraint=eastwest;whiteSpace=wrap;html=1;" parent="fEWmQViv0Enz_nrROp1N-135" vertex="1">
          <mxGeometry y="60" width="130" height="26" as="geometry" />
        </mxCell>
        <mxCell id="fEWmQViv0Enz_nrROp1N-139" value="MantenimientoCompanias" style="swimlane;fontStyle=1;align=center;verticalAlign=top;childLayout=stackLayout;horizontal=1;startSize=26;horizontalStack=0;resizeParent=1;resizeParentMax=0;resizeLast=0;collapsible=1;marginBottom=0;whiteSpace=wrap;html=1;rounded=1;" parent="1" vertex="1">
          <mxGeometry x="80" y="-890" width="290" height="268" as="geometry" />
        </mxCell>
        <mxCell id="fEWmQViv0Enz_nrROp1N-140" value="&lt;font color=&quot;#ffffff&quot;&gt;-&lt;/font&gt;" style="text;strokeColor=none;fillColor=none;align=left;verticalAlign=top;spacingLeft=4;spacingRight=4;overflow=hidden;rotatable=0;points=[[0,0.5],[1,0.5]];portConstraint=eastwest;whiteSpace=wrap;html=1;" parent="fEWmQViv0Enz_nrROp1N-139" vertex="1">
          <mxGeometry y="26" width="290" height="26" as="geometry" />
        </mxCell>
        <mxCell id="fEWmQViv0Enz_nrROp1N-141" value="" style="line;strokeWidth=1;fillColor=none;align=left;verticalAlign=middle;spacingTop=-1;spacingLeft=3;spacingRight=3;rotatable=0;labelPosition=right;points=[];portConstraint=eastwest;strokeColor=inherit;" parent="fEWmQViv0Enz_nrROp1N-139" vertex="1">
          <mxGeometry y="52" width="290" height="8" as="geometry" />
        </mxCell>
        <mxCell id="fEWmQViv0Enz_nrROp1N-142" value="# Page_Load (sender : object, e : EventArgs)" style="text;strokeColor=none;fillColor=none;align=left;verticalAlign=top;spacingLeft=4;spacingRight=4;overflow=hidden;rotatable=0;points=[[0,0.5],[1,0.5]];portConstraint=eastwest;whiteSpace=wrap;html=1;" parent="fEWmQViv0Enz_nrROp1N-139" vertex="1">
          <mxGeometry y="60" width="290" height="26" as="geometry" />
        </mxCell>
        <mxCell id="fEWmQViv0Enz_nrROp1N-143" value="- LimpioFormulario()" style="text;strokeColor=none;fillColor=none;align=left;verticalAlign=top;spacingLeft=4;spacingRight=4;overflow=hidden;rotatable=0;points=[[0,0.5],[1,0.5]];portConstraint=eastwest;whiteSpace=wrap;html=1;" parent="fEWmQViv0Enz_nrROp1N-139" vertex="1">
          <mxGeometry y="86" width="290" height="26" as="geometry" />
        </mxCell>
        <mxCell id="fEWmQViv0Enz_nrROp1N-144" value="- ActivoBotones (esAlta : bool)" style="text;strokeColor=none;fillColor=none;align=left;verticalAlign=top;spacingLeft=4;spacingRight=4;overflow=hidden;rotatable=0;points=[[0,0.5],[1,0.5]];portConstraint=eastwest;whiteSpace=wrap;html=1;" parent="fEWmQViv0Enz_nrROp1N-139" vertex="1">
          <mxGeometry y="112" width="290" height="26" as="geometry" />
        </mxCell>
        <mxCell id="fEWmQViv0Enz_nrROp1N-148" value="# btnLimpiar_Click (sender : object, e : EventArgs)" style="text;strokeColor=none;fillColor=none;align=left;verticalAlign=top;spacingLeft=4;spacingRight=4;overflow=hidden;rotatable=0;points=[[0,0.5],[1,0.5]];portConstraint=eastwest;whiteSpace=wrap;html=1;" parent="fEWmQViv0Enz_nrROp1N-139" vertex="1">
          <mxGeometry y="138" width="290" height="26" as="geometry" />
        </mxCell>
        <mxCell id="fEWmQViv0Enz_nrROp1N-161" value="# btnBuscar_Click (sender : object, e : EventArgs)" style="text;strokeColor=none;fillColor=none;align=left;verticalAlign=top;spacingLeft=4;spacingRight=4;overflow=hidden;rotatable=0;points=[[0,0.5],[1,0.5]];portConstraint=eastwest;whiteSpace=wrap;html=1;" parent="fEWmQViv0Enz_nrROp1N-139" vertex="1">
          <mxGeometry y="164" width="290" height="26" as="geometry" />
        </mxCell>
        <mxCell id="fEWmQViv0Enz_nrROp1N-145" value="# btnAgregar_Click (sender : object, e : EventArgs)" style="text;strokeColor=none;fillColor=none;align=left;verticalAlign=top;spacingLeft=4;spacingRight=4;overflow=hidden;rotatable=0;points=[[0,0.5],[1,0.5]];portConstraint=eastwest;whiteSpace=wrap;html=1;" parent="fEWmQViv0Enz_nrROp1N-139" vertex="1">
          <mxGeometry y="190" width="290" height="26" as="geometry" />
        </mxCell>
        <mxCell id="fEWmQViv0Enz_nrROp1N-146" value="# btnModificar_Click (sender : object, e : EventArgs)" style="text;strokeColor=none;fillColor=none;align=left;verticalAlign=top;spacingLeft=4;spacingRight=4;overflow=hidden;rotatable=0;points=[[0,0.5],[1,0.5]];portConstraint=eastwest;whiteSpace=wrap;html=1;" parent="fEWmQViv0Enz_nrROp1N-139" vertex="1">
          <mxGeometry y="216" width="290" height="26" as="geometry" />
        </mxCell>
        <mxCell id="fEWmQViv0Enz_nrROp1N-147" value="# btnEliminar_Click (sender : object, e : EventArgs)" style="text;strokeColor=none;fillColor=none;align=left;verticalAlign=top;spacingLeft=4;spacingRight=4;overflow=hidden;rotatable=0;points=[[0,0.5],[1,0.5]];portConstraint=eastwest;whiteSpace=wrap;html=1;" parent="fEWmQViv0Enz_nrROp1N-139" vertex="1">
          <mxGeometry y="242" width="290" height="26" as="geometry" />
        </mxCell>
        <mxCell id="fEWmQViv0Enz_nrROp1N-151" value="MantenimientoTerminalNacional" style="swimlane;fontStyle=1;align=center;verticalAlign=top;childLayout=stackLayout;horizontal=1;startSize=26;horizontalStack=0;resizeParent=1;resizeParentMax=0;resizeLast=0;collapsible=1;marginBottom=0;whiteSpace=wrap;html=1;rounded=1;" parent="1" vertex="1">
          <mxGeometry x="445" y="-1110" width="290" height="268" as="geometry" />
        </mxCell>
        <mxCell id="fEWmQViv0Enz_nrROp1N-152" value="&lt;font color=&quot;#ffffff&quot;&gt;-&lt;/font&gt;" style="text;strokeColor=none;fillColor=none;align=left;verticalAlign=top;spacingLeft=4;spacingRight=4;overflow=hidden;rotatable=0;points=[[0,0.5],[1,0.5]];portConstraint=eastwest;whiteSpace=wrap;html=1;" parent="fEWmQViv0Enz_nrROp1N-151" vertex="1">
          <mxGeometry y="26" width="290" height="26" as="geometry" />
        </mxCell>
        <mxCell id="fEWmQViv0Enz_nrROp1N-153" value="" style="line;strokeWidth=1;fillColor=none;align=left;verticalAlign=middle;spacingTop=-1;spacingLeft=3;spacingRight=3;rotatable=0;labelPosition=right;points=[];portConstraint=eastwest;strokeColor=inherit;" parent="fEWmQViv0Enz_nrROp1N-151" vertex="1">
          <mxGeometry y="52" width="290" height="8" as="geometry" />
        </mxCell>
        <mxCell id="fEWmQViv0Enz_nrROp1N-154" value="# Page_Load(sender : object, e : EventArgs)" style="text;strokeColor=none;fillColor=none;align=left;verticalAlign=top;spacingLeft=4;spacingRight=4;overflow=hidden;rotatable=0;points=[[0,0.5],[1,0.5]];portConstraint=eastwest;whiteSpace=wrap;html=1;" parent="fEWmQViv0Enz_nrROp1N-151" vertex="1">
          <mxGeometry y="60" width="290" height="26" as="geometry" />
        </mxCell>
        <mxCell id="fEWmQViv0Enz_nrROp1N-155" value="- LimpioFormulario()" style="text;strokeColor=none;fillColor=none;align=left;verticalAlign=top;spacingLeft=4;spacingRight=4;overflow=hidden;rotatable=0;points=[[0,0.5],[1,0.5]];portConstraint=eastwest;whiteSpace=wrap;html=1;" parent="fEWmQViv0Enz_nrROp1N-151" vertex="1">
          <mxGeometry y="86" width="290" height="26" as="geometry" />
        </mxCell>
        <mxCell id="fEWmQViv0Enz_nrROp1N-156" value="- ActivoBotones (esAlta : bool)" style="text;strokeColor=none;fillColor=none;align=left;verticalAlign=top;spacingLeft=4;spacingRight=4;overflow=hidden;rotatable=0;points=[[0,0.5],[1,0.5]];portConstraint=eastwest;whiteSpace=wrap;html=1;" parent="fEWmQViv0Enz_nrROp1N-151" vertex="1">
          <mxGeometry y="112" width="290" height="26" as="geometry" />
        </mxCell>
        <mxCell id="fEWmQViv0Enz_nrROp1N-160" value="# btnLimpiar_Click (sender : object, e : EventArgs)" style="text;strokeColor=none;fillColor=none;align=left;verticalAlign=top;spacingLeft=4;spacingRight=4;overflow=hidden;rotatable=0;points=[[0,0.5],[1,0.5]];portConstraint=eastwest;whiteSpace=wrap;html=1;" parent="fEWmQViv0Enz_nrROp1N-151" vertex="1">
          <mxGeometry y="138" width="290" height="26" as="geometry" />
        </mxCell>
        <mxCell id="fEWmQViv0Enz_nrROp1N-162" value="# btnBuscar_Click(sender : object, e : EventArgs)" style="text;strokeColor=none;fillColor=none;align=left;verticalAlign=top;spacingLeft=4;spacingRight=4;overflow=hidden;rotatable=0;points=[[0,0.5],[1,0.5]];portConstraint=eastwest;whiteSpace=wrap;html=1;" parent="fEWmQViv0Enz_nrROp1N-151" vertex="1">
          <mxGeometry y="164" width="290" height="26" as="geometry" />
        </mxCell>
        <mxCell id="fEWmQViv0Enz_nrROp1N-157" value="# btnAgregar_Click (sender : object, e : EventArgs)" style="text;strokeColor=none;fillColor=none;align=left;verticalAlign=top;spacingLeft=4;spacingRight=4;overflow=hidden;rotatable=0;points=[[0,0.5],[1,0.5]];portConstraint=eastwest;whiteSpace=wrap;html=1;" parent="fEWmQViv0Enz_nrROp1N-151" vertex="1">
          <mxGeometry y="190" width="290" height="26" as="geometry" />
        </mxCell>
        <mxCell id="fEWmQViv0Enz_nrROp1N-158" value="# btnModificar_Click (sender : object, e : EventArgs)" style="text;strokeColor=none;fillColor=none;align=left;verticalAlign=top;spacingLeft=4;spacingRight=4;overflow=hidden;rotatable=0;points=[[0,0.5],[1,0.5]];portConstraint=eastwest;whiteSpace=wrap;html=1;" parent="fEWmQViv0Enz_nrROp1N-151" vertex="1">
          <mxGeometry y="216" width="290" height="26" as="geometry" />
        </mxCell>
        <mxCell id="fEWmQViv0Enz_nrROp1N-159" value="# btnEliminar_Click (sender : object, e : EventArgs)" style="text;strokeColor=none;fillColor=none;align=left;verticalAlign=top;spacingLeft=4;spacingRight=4;overflow=hidden;rotatable=0;points=[[0,0.5],[1,0.5]];portConstraint=eastwest;whiteSpace=wrap;html=1;" parent="fEWmQViv0Enz_nrROp1N-151" vertex="1">
          <mxGeometry y="242" width="290" height="26" as="geometry" />
        </mxCell>
        <mxCell id="fEWmQViv0Enz_nrROp1N-163" value="MantenimientoTerminalInternacional" style="swimlane;fontStyle=1;align=center;verticalAlign=top;childLayout=stackLayout;horizontal=1;startSize=26;horizontalStack=0;resizeParent=1;resizeParentMax=0;resizeLast=0;collapsible=1;marginBottom=0;whiteSpace=wrap;html=1;rounded=1;" parent="1" vertex="1">
          <mxGeometry x="780" y="-1110" width="290" height="268" as="geometry" />
        </mxCell>
        <mxCell id="fEWmQViv0Enz_nrROp1N-164" value="&lt;font color=&quot;#ffffff&quot;&gt;-&lt;/font&gt;" style="text;strokeColor=none;fillColor=none;align=left;verticalAlign=top;spacingLeft=4;spacingRight=4;overflow=hidden;rotatable=0;points=[[0,0.5],[1,0.5]];portConstraint=eastwest;whiteSpace=wrap;html=1;" parent="fEWmQViv0Enz_nrROp1N-163" vertex="1">
          <mxGeometry y="26" width="290" height="26" as="geometry" />
        </mxCell>
        <mxCell id="fEWmQViv0Enz_nrROp1N-165" value="" style="line;strokeWidth=1;fillColor=none;align=left;verticalAlign=middle;spacingTop=-1;spacingLeft=3;spacingRight=3;rotatable=0;labelPosition=right;points=[];portConstraint=eastwest;strokeColor=inherit;" parent="fEWmQViv0Enz_nrROp1N-163" vertex="1">
          <mxGeometry y="52" width="290" height="8" as="geometry" />
        </mxCell>
        <mxCell id="fEWmQViv0Enz_nrROp1N-166" value="# Page_Load(sender : object, e : EventArgs)" style="text;strokeColor=none;fillColor=none;align=left;verticalAlign=top;spacingLeft=4;spacingRight=4;overflow=hidden;rotatable=0;points=[[0,0.5],[1,0.5]];portConstraint=eastwest;whiteSpace=wrap;html=1;" parent="fEWmQViv0Enz_nrROp1N-163" vertex="1">
          <mxGeometry y="60" width="290" height="26" as="geometry" />
        </mxCell>
        <mxCell id="fEWmQViv0Enz_nrROp1N-167" value="- LimpioFormulario()" style="text;strokeColor=none;fillColor=none;align=left;verticalAlign=top;spacingLeft=4;spacingRight=4;overflow=hidden;rotatable=0;points=[[0,0.5],[1,0.5]];portConstraint=eastwest;whiteSpace=wrap;html=1;" parent="fEWmQViv0Enz_nrROp1N-163" vertex="1">
          <mxGeometry y="86" width="290" height="26" as="geometry" />
        </mxCell>
        <mxCell id="fEWmQViv0Enz_nrROp1N-168" value="- ActivoBotones (esAlta : bool)" style="text;strokeColor=none;fillColor=none;align=left;verticalAlign=top;spacingLeft=4;spacingRight=4;overflow=hidden;rotatable=0;points=[[0,0.5],[1,0.5]];portConstraint=eastwest;whiteSpace=wrap;html=1;" parent="fEWmQViv0Enz_nrROp1N-163" vertex="1">
          <mxGeometry y="112" width="290" height="26" as="geometry" />
        </mxCell>
        <mxCell id="fEWmQViv0Enz_nrROp1N-169" value="# btnLimpiar_Click (sender : object, e : EventArgs)" style="text;strokeColor=none;fillColor=none;align=left;verticalAlign=top;spacingLeft=4;spacingRight=4;overflow=hidden;rotatable=0;points=[[0,0.5],[1,0.5]];portConstraint=eastwest;whiteSpace=wrap;html=1;" parent="fEWmQViv0Enz_nrROp1N-163" vertex="1">
          <mxGeometry y="138" width="290" height="26" as="geometry" />
        </mxCell>
        <mxCell id="fEWmQViv0Enz_nrROp1N-170" value="# btnBuscar_Click(sender : object, e : EventArgs)" style="text;strokeColor=none;fillColor=none;align=left;verticalAlign=top;spacingLeft=4;spacingRight=4;overflow=hidden;rotatable=0;points=[[0,0.5],[1,0.5]];portConstraint=eastwest;whiteSpace=wrap;html=1;" parent="fEWmQViv0Enz_nrROp1N-163" vertex="1">
          <mxGeometry y="164" width="290" height="26" as="geometry" />
        </mxCell>
        <mxCell id="fEWmQViv0Enz_nrROp1N-171" value="# btnAgregar_Click (sender : object, e : EventArgs)" style="text;strokeColor=none;fillColor=none;align=left;verticalAlign=top;spacingLeft=4;spacingRight=4;overflow=hidden;rotatable=0;points=[[0,0.5],[1,0.5]];portConstraint=eastwest;whiteSpace=wrap;html=1;" parent="fEWmQViv0Enz_nrROp1N-163" vertex="1">
          <mxGeometry y="190" width="290" height="26" as="geometry" />
        </mxCell>
        <mxCell id="fEWmQViv0Enz_nrROp1N-172" value="# btnModificar_Click (sender : object, e : EventArgs)" style="text;strokeColor=none;fillColor=none;align=left;verticalAlign=top;spacingLeft=4;spacingRight=4;overflow=hidden;rotatable=0;points=[[0,0.5],[1,0.5]];portConstraint=eastwest;whiteSpace=wrap;html=1;" parent="fEWmQViv0Enz_nrROp1N-163" vertex="1">
          <mxGeometry y="216" width="290" height="26" as="geometry" />
        </mxCell>
        <mxCell id="fEWmQViv0Enz_nrROp1N-173" value="# btnEliminar_Click (sender : object, e : EventArgs)" style="text;strokeColor=none;fillColor=none;align=left;verticalAlign=top;spacingLeft=4;spacingRight=4;overflow=hidden;rotatable=0;points=[[0,0.5],[1,0.5]];portConstraint=eastwest;whiteSpace=wrap;html=1;" parent="fEWmQViv0Enz_nrROp1N-163" vertex="1">
          <mxGeometry y="242" width="290" height="26" as="geometry" />
        </mxCell>
        <mxCell id="fEWmQViv0Enz_nrROp1N-198" value="ListadoTerminales" style="swimlane;fontStyle=1;align=center;verticalAlign=top;childLayout=stackLayout;horizontal=1;startSize=26;horizontalStack=0;resizeParent=1;resizeParentMax=0;resizeLast=0;collapsible=1;marginBottom=0;whiteSpace=wrap;html=1;rounded=1;" parent="1" vertex="1">
          <mxGeometry x="1110" y="-770" width="390" height="138" as="geometry" />
        </mxCell>
        <mxCell id="fEWmQViv0Enz_nrROp1N-199" value="&lt;font color=&quot;#ffffff&quot;&gt;-&lt;/font&gt;" style="text;strokeColor=none;fillColor=none;align=left;verticalAlign=top;spacingLeft=4;spacingRight=4;overflow=hidden;rotatable=0;points=[[0,0.5],[1,0.5]];portConstraint=eastwest;whiteSpace=wrap;html=1;" parent="fEWmQViv0Enz_nrROp1N-198" vertex="1">
          <mxGeometry y="26" width="390" height="26" as="geometry" />
        </mxCell>
        <mxCell id="fEWmQViv0Enz_nrROp1N-200" value="" style="line;strokeWidth=1;fillColor=none;align=left;verticalAlign=middle;spacingTop=-1;spacingLeft=3;spacingRight=3;rotatable=0;labelPosition=right;points=[];portConstraint=eastwest;strokeColor=inherit;" parent="fEWmQViv0Enz_nrROp1N-198" vertex="1">
          <mxGeometry y="52" width="390" height="8" as="geometry" />
        </mxCell>
        <mxCell id="fEWmQViv0Enz_nrROp1N-201" value="# Page_Load(sender : object, e : EventArgs)" style="text;strokeColor=none;fillColor=none;align=left;verticalAlign=top;spacingLeft=4;spacingRight=4;overflow=hidden;rotatable=0;points=[[0,0.5],[1,0.5]];portConstraint=eastwest;whiteSpace=wrap;html=1;" parent="fEWmQViv0Enz_nrROp1N-198" vertex="1">
          <mxGeometry y="60" width="390" height="26" as="geometry" />
        </mxCell>
        <mxCell id="fEWmQViv0Enz_nrROp1N-204" value="# ddlOpciones_SelectedIndexChanged (sender : object, e : EventArgs)" style="text;strokeColor=none;fillColor=none;align=left;verticalAlign=top;spacingLeft=4;spacingRight=4;overflow=hidden;rotatable=0;points=[[0,0.5],[1,0.5]];portConstraint=eastwest;whiteSpace=wrap;html=1;" parent="fEWmQViv0Enz_nrROp1N-198" vertex="1">
          <mxGeometry y="86" width="390" height="26" as="geometry" />
        </mxCell>
        <mxCell id="fEWmQViv0Enz_nrROp1N-206" value="# gvTerminales_PageIndexChanging (sender : object, e : EventArgs)" style="text;strokeColor=none;fillColor=none;align=left;verticalAlign=top;spacingLeft=4;spacingRight=4;overflow=hidden;rotatable=0;points=[[0,0.5],[1,0.5]];portConstraint=eastwest;whiteSpace=wrap;html=1;" parent="fEWmQViv0Enz_nrROp1N-198" vertex="1">
          <mxGeometry y="112" width="390" height="26" as="geometry" />
        </mxCell>
        <mxCell id="fEWmQViv0Enz_nrROp1N-209" value="ListadoTodasLasCompanias" style="swimlane;fontStyle=1;align=center;verticalAlign=top;childLayout=stackLayout;horizontal=1;startSize=26;horizontalStack=0;resizeParent=1;resizeParentMax=0;resizeLast=0;collapsible=1;marginBottom=0;whiteSpace=wrap;html=1;rounded=1;" parent="1" vertex="1">
          <mxGeometry x="80" y="-580" width="380" height="112" as="geometry" />
        </mxCell>
        <mxCell id="fEWmQViv0Enz_nrROp1N-210" value="&lt;font color=&quot;#ffffff&quot;&gt;-&lt;/font&gt;" style="text;strokeColor=none;fillColor=none;align=left;verticalAlign=top;spacingLeft=4;spacingRight=4;overflow=hidden;rotatable=0;points=[[0,0.5],[1,0.5]];portConstraint=eastwest;whiteSpace=wrap;html=1;" parent="fEWmQViv0Enz_nrROp1N-209" vertex="1">
          <mxGeometry y="26" width="380" height="26" as="geometry" />
        </mxCell>
        <mxCell id="fEWmQViv0Enz_nrROp1N-211" value="" style="line;strokeWidth=1;fillColor=none;align=left;verticalAlign=middle;spacingTop=-1;spacingLeft=3;spacingRight=3;rotatable=0;labelPosition=right;points=[];portConstraint=eastwest;strokeColor=inherit;" parent="fEWmQViv0Enz_nrROp1N-209" vertex="1">
          <mxGeometry y="52" width="380" height="8" as="geometry" />
        </mxCell>
        <mxCell id="fEWmQViv0Enz_nrROp1N-212" value="# Page_Load(sender : object, e : EventArgs)" style="text;strokeColor=none;fillColor=none;align=left;verticalAlign=top;spacingLeft=4;spacingRight=4;overflow=hidden;rotatable=0;points=[[0,0.5],[1,0.5]];portConstraint=eastwest;whiteSpace=wrap;html=1;" parent="fEWmQViv0Enz_nrROp1N-209" vertex="1">
          <mxGeometry y="60" width="380" height="26" as="geometry" />
        </mxCell>
        <mxCell id="fEWmQViv0Enz_nrROp1N-213" value="# gvCompanias_PageIndexChanging (sender : object, e : EventArgs)" style="text;strokeColor=none;fillColor=none;align=left;verticalAlign=top;spacingLeft=4;spacingRight=4;overflow=hidden;rotatable=0;points=[[0,0.5],[1,0.5]];portConstraint=eastwest;whiteSpace=wrap;html=1;" parent="fEWmQViv0Enz_nrROp1N-209" vertex="1">
          <mxGeometry y="86" width="380" height="26" as="geometry" />
        </mxCell>
        <mxCell id="fEWmQViv0Enz_nrROp1N-215" value="ListadoViajesTerminalMesAnio" style="swimlane;fontStyle=1;align=center;verticalAlign=top;childLayout=stackLayout;horizontal=1;startSize=26;horizontalStack=0;resizeParent=1;resizeParentMax=0;resizeLast=0;collapsible=1;marginBottom=0;whiteSpace=wrap;html=1;rounded=1;" parent="1" vertex="1">
          <mxGeometry x="1100" y="-610" width="390" height="138" as="geometry" />
        </mxCell>
        <mxCell id="fEWmQViv0Enz_nrROp1N-216" value="&lt;font color=&quot;#ffffff&quot;&gt;-&lt;/font&gt;" style="text;strokeColor=none;fillColor=none;align=left;verticalAlign=top;spacingLeft=4;spacingRight=4;overflow=hidden;rotatable=0;points=[[0,0.5],[1,0.5]];portConstraint=eastwest;whiteSpace=wrap;html=1;" parent="fEWmQViv0Enz_nrROp1N-215" vertex="1">
          <mxGeometry y="26" width="390" height="26" as="geometry" />
        </mxCell>
        <mxCell id="fEWmQViv0Enz_nrROp1N-217" value="" style="line;strokeWidth=1;fillColor=none;align=left;verticalAlign=middle;spacingTop=-1;spacingLeft=3;spacingRight=3;rotatable=0;labelPosition=right;points=[];portConstraint=eastwest;strokeColor=inherit;" parent="fEWmQViv0Enz_nrROp1N-215" vertex="1">
          <mxGeometry y="52" width="390" height="8" as="geometry" />
        </mxCell>
        <mxCell id="fEWmQViv0Enz_nrROp1N-218" value="# Page_Load(sender : object, e : EventArgs)" style="text;strokeColor=none;fillColor=none;align=left;verticalAlign=top;spacingLeft=4;spacingRight=4;overflow=hidden;rotatable=0;points=[[0,0.5],[1,0.5]];portConstraint=eastwest;whiteSpace=wrap;html=1;" parent="fEWmQViv0Enz_nrROp1N-215" vertex="1">
          <mxGeometry y="60" width="390" height="26" as="geometry" />
        </mxCell>
        <mxCell id="fEWmQViv0Enz_nrROp1N-220" value="-&amp;nbsp;CargarDropDownListTerminales()" style="text;strokeColor=none;fillColor=none;align=left;verticalAlign=top;spacingLeft=4;spacingRight=4;overflow=hidden;rotatable=0;points=[[0,0.5],[1,0.5]];portConstraint=eastwest;whiteSpace=wrap;html=1;" parent="fEWmQViv0Enz_nrROp1N-215" vertex="1">
          <mxGeometry y="86" width="390" height="26" as="geometry" />
        </mxCell>
        <mxCell id="fEWmQViv0Enz_nrROp1N-219" value="# btnConsultar_Click (sender : object, e : EventArgs)" style="text;strokeColor=none;fillColor=none;align=left;verticalAlign=top;spacingLeft=4;spacingRight=4;overflow=hidden;rotatable=0;points=[[0,0.5],[1,0.5]];portConstraint=eastwest;whiteSpace=wrap;html=1;" parent="fEWmQViv0Enz_nrROp1N-215" vertex="1">
          <mxGeometry y="112" width="390" height="26" as="geometry" />
        </mxCell>
        <mxCell id="fEWmQViv0Enz_nrROp1N-222" value="" style="endArrow=none;dashed=1;html=1;rounded=1;startArrow=openThin;startFill=0;entryX=0;entryY=0.5;entryDx=0;entryDy=0;exitX=0.25;exitY=0;exitDx=0;exitDy=0;strokeWidth=1.5;" parent="1" source="fEWmQViv0Enz_nrROp1N-58" target="fEWmQViv0Enz_nrROp1N-140" edge="1">
          <mxGeometry width="50" height="50" relative="1" as="geometry">
            <mxPoint y="-367.7142857142857" as="sourcePoint" />
            <mxPoint x="10" y="-730" as="targetPoint" />
            <Array as="points">
              <mxPoint x="240" y="-210" />
              <mxPoint x="120" y="-210" />
              <mxPoint x="120" y="-380" />
              <mxPoint x="30" y="-380" />
              <mxPoint x="30" y="-851" />
            </Array>
          </mxGeometry>
        </mxCell>
        <mxCell id="fEWmQViv0Enz_nrROp1N-225" value="" style="endArrow=none;dashed=1;html=1;rounded=1;startArrow=openThin;startFill=0;entryX=0;entryY=0.5;entryDx=0;entryDy=0;exitX=0.5;exitY=0;exitDx=0;exitDy=0;strokeWidth=1.5;" parent="1" source="fEWmQViv0Enz_nrROp1N-58" target="fEWmQViv0Enz_nrROp1N-210" edge="1">
          <mxGeometry width="50" height="50" relative="1" as="geometry">
            <mxPoint x="360" y="-390" as="sourcePoint" />
            <mxPoint x="210" y="-460" as="targetPoint" />
            <Array as="points">
              <mxPoint x="300" y="-250" />
              <mxPoint x="160" y="-250" />
              <mxPoint x="160" y="-410" />
              <mxPoint x="60" y="-410" />
              <mxPoint x="60" y="-541" />
            </Array>
          </mxGeometry>
        </mxCell>
        <mxCell id="fEWmQViv0Enz_nrROp1N-226" value="" style="endArrow=none;dashed=1;html=1;rounded=1;startArrow=openThin;startFill=0;entryX=1;entryY=0.5;entryDx=0;entryDy=0;exitX=0.25;exitY=0;exitDx=0;exitDy=0;strokeWidth=1.5;" parent="1" source="fEWmQViv0Enz_nrROp1N-66" target="fEWmQViv0Enz_nrROp1N-152" edge="1">
          <mxGeometry width="50" height="50" relative="1" as="geometry">
            <mxPoint x="720" y="-370" as="sourcePoint" />
            <mxPoint x="610" y="-580" as="targetPoint" />
            <Array as="points">
              <mxPoint x="590" y="-330" />
              <mxPoint x="970" y="-330" />
              <mxPoint x="970" y="-780" />
              <mxPoint x="400" y="-780" />
              <mxPoint x="400" y="-1071" />
            </Array>
          </mxGeometry>
        </mxCell>
        <mxCell id="fEWmQViv0Enz_nrROp1N-227" value="" style="endArrow=none;dashed=1;html=1;rounded=1;startArrow=openThin;startFill=0;entryX=1;entryY=0.5;entryDx=0;entryDy=0;exitX=0.5;exitY=0;exitDx=0;exitDy=0;strokeWidth=1.5;" parent="1" source="fEWmQViv0Enz_nrROp1N-66" target="fEWmQViv0Enz_nrROp1N-164" edge="1">
          <mxGeometry width="50" height="50" relative="1" as="geometry">
            <mxPoint x="660" y="-530" as="sourcePoint" />
            <mxPoint x="710" y="-580" as="targetPoint" />
            <Array as="points">
              <mxPoint x="655" y="-260" />
              <mxPoint x="1000" y="-260" />
              <mxPoint x="1000" y="-800" />
              <mxPoint x="1140" y="-800" />
              <mxPoint x="1140" y="-1071" />
            </Array>
          </mxGeometry>
        </mxCell>
        <mxCell id="fEWmQViv0Enz_nrROp1N-228" value="" style="endArrow=none;dashed=1;html=1;rounded=1;startArrow=openThin;startFill=0;entryX=0;entryY=0.5;entryDx=0;entryDy=0;exitX=0.75;exitY=0;exitDx=0;exitDy=0;strokeWidth=1.5;" parent="1" source="fEWmQViv0Enz_nrROp1N-66" target="fEWmQViv0Enz_nrROp1N-199" edge="1">
          <mxGeometry width="50" height="50" relative="1" as="geometry">
            <mxPoint x="710" y="-410" as="sourcePoint" />
            <mxPoint x="760" y="-460" as="targetPoint" />
            <Array as="points">
              <mxPoint x="718" y="-230" />
              <mxPoint x="1040" y="-230" />
              <mxPoint x="1040" y="-731" />
            </Array>
          </mxGeometry>
        </mxCell>
        <mxCell id="fEWmQViv0Enz_nrROp1N-229" value="" style="endArrow=none;dashed=1;html=1;rounded=1;startArrow=openThin;startFill=0;entryX=0;entryY=0.5;entryDx=0;entryDy=0;exitX=1;exitY=0.5;exitDx=0;exitDy=0;strokeWidth=1.5;" parent="1" source="fEWmQViv0Enz_nrROp1N-73" target="fEWmQViv0Enz_nrROp1N-216" edge="1">
          <mxGeometry width="50" height="50" relative="1" as="geometry">
            <mxPoint x="820" y="-380" as="sourcePoint" />
            <mxPoint x="870" y="-430" as="targetPoint" />
            <Array as="points">
              <mxPoint x="800" y="-121" />
              <mxPoint x="800" y="-200" />
              <mxPoint x="1060" y="-200" />
              <mxPoint x="1060" y="-571" />
            </Array>
          </mxGeometry>
        </mxCell>
        <mxCell id="fEWmQViv0Enz_nrROp1N-230" value="" style="endArrow=none;dashed=1;html=1;rounded=1;startArrow=openThin;startFill=0;entryX=1;entryY=0.5;entryDx=0;entryDy=0;exitX=1;exitY=0.5;exitDx=0;exitDy=0;strokeWidth=1.5;" parent="1" source="fEWmQViv0Enz_nrROp1N-231" target="fEWmQViv0Enz_nrROp1N-216" edge="1">
          <mxGeometry width="50" height="50" relative="1" as="geometry">
            <mxPoint x="1460" y="-490" as="sourcePoint" />
            <mxPoint x="1450" y="-570" as="targetPoint" />
            <Array as="points">
              <mxPoint x="1390" y="-121" />
              <mxPoint x="1390" y="-440" />
              <mxPoint x="1520" y="-440" />
              <mxPoint x="1520" y="-571" />
            </Array>
          </mxGeometry>
        </mxCell>
        <mxCell id="fEWmQViv0Enz_nrROp1N-174" value="AgregarViaje" style="swimlane;fontStyle=1;align=center;verticalAlign=top;childLayout=stackLayout;horizontal=1;startSize=26;horizontalStack=0;resizeParent=1;resizeParentMax=0;resizeLast=0;collapsible=1;marginBottom=0;whiteSpace=wrap;html=1;rounded=1;" parent="1" vertex="1">
          <mxGeometry x="550" y="-700" width="380" height="190" as="geometry" />
        </mxCell>
        <mxCell id="fEWmQViv0Enz_nrROp1N-175" value="&lt;font color=&quot;#ffffff&quot;&gt;-&lt;/font&gt;" style="text;strokeColor=none;fillColor=none;align=left;verticalAlign=top;spacingLeft=4;spacingRight=4;overflow=hidden;rotatable=0;points=[[0,0.5],[1,0.5]];portConstraint=eastwest;whiteSpace=wrap;html=1;" parent="fEWmQViv0Enz_nrROp1N-174" vertex="1">
          <mxGeometry y="26" width="380" height="26" as="geometry" />
        </mxCell>
        <mxCell id="fEWmQViv0Enz_nrROp1N-176" value="" style="line;strokeWidth=1;fillColor=none;align=left;verticalAlign=middle;spacingTop=-1;spacingLeft=3;spacingRight=3;rotatable=0;labelPosition=right;points=[];portConstraint=eastwest;strokeColor=inherit;" parent="fEWmQViv0Enz_nrROp1N-174" vertex="1">
          <mxGeometry y="52" width="380" height="8" as="geometry" />
        </mxCell>
        <mxCell id="fEWmQViv0Enz_nrROp1N-177" value="# Page_Load(sender : object, e : EventArgs)" style="text;strokeColor=none;fillColor=none;align=left;verticalAlign=top;spacingLeft=4;spacingRight=4;overflow=hidden;rotatable=0;points=[[0,0.5],[1,0.5]];portConstraint=eastwest;whiteSpace=wrap;html=1;" parent="fEWmQViv0Enz_nrROp1N-174" vertex="1">
          <mxGeometry y="60" width="380" height="26" as="geometry" />
        </mxCell>
        <mxCell id="fEWmQViv0Enz_nrROp1N-178" value="- LimpioFormulario()" style="text;strokeColor=none;fillColor=none;align=left;verticalAlign=top;spacingLeft=4;spacingRight=4;overflow=hidden;rotatable=0;points=[[0,0.5],[1,0.5]];portConstraint=eastwest;whiteSpace=wrap;html=1;" parent="fEWmQViv0Enz_nrROp1N-174" vertex="1">
          <mxGeometry y="86" width="380" height="26" as="geometry" />
        </mxCell>
        <mxCell id="fEWmQViv0Enz_nrROp1N-196" value="- CargarDropDownListCompanias()" style="text;strokeColor=none;fillColor=none;align=left;verticalAlign=top;spacingLeft=4;spacingRight=4;overflow=hidden;rotatable=0;points=[[0,0.5],[1,0.5]];portConstraint=eastwest;whiteSpace=wrap;html=1;" parent="fEWmQViv0Enz_nrROp1N-174" vertex="1">
          <mxGeometry y="112" width="380" height="26" as="geometry" />
        </mxCell>
        <mxCell id="fEWmQViv0Enz_nrROp1N-197" value="- CargarDropDownListTerminales()" style="text;strokeColor=none;fillColor=none;align=left;verticalAlign=top;spacingLeft=4;spacingRight=4;overflow=hidden;rotatable=0;points=[[0,0.5],[1,0.5]];portConstraint=eastwest;whiteSpace=wrap;html=1;" parent="fEWmQViv0Enz_nrROp1N-174" vertex="1">
          <mxGeometry y="138" width="380" height="26" as="geometry" />
        </mxCell>
        <mxCell id="fEWmQViv0Enz_nrROp1N-182" value="# btnAgregar_Click (sender : object, e : EventArgs)" style="text;strokeColor=none;fillColor=none;align=left;verticalAlign=top;spacingLeft=4;spacingRight=4;overflow=hidden;rotatable=0;points=[[0,0.5],[1,0.5]];portConstraint=eastwest;whiteSpace=wrap;html=1;" parent="fEWmQViv0Enz_nrROp1N-174" vertex="1">
          <mxGeometry y="164" width="380" height="26" as="geometry" />
        </mxCell>
        <mxCell id="fEWmQViv0Enz_nrROp1N-233" value="" style="endArrow=none;dashed=1;html=1;rounded=1;startArrow=openThin;startFill=0;entryX=0.46;entryY=1.242;entryDx=0;entryDy=0;exitX=-0.003;exitY=0.913;exitDx=0;exitDy=0;exitPerimeter=0;fillColor=#e51400;strokeColor=#B20000;strokeWidth=1.5;entryPerimeter=0;" parent="1" source="fEWmQViv0Enz_nrROp1N-73" target="fEWmQViv0Enz_nrROp1N-182" edge="1">
          <mxGeometry width="50" height="50" relative="1" as="geometry">
            <mxPoint x="593" y="-160" as="sourcePoint" />
            <mxPoint x="560" y="-740" as="targetPoint" />
            <Array as="points">
              <mxPoint x="500" y="-110" />
              <mxPoint x="500" y="-480" />
              <mxPoint x="725" y="-480" />
            </Array>
          </mxGeometry>
        </mxCell>
        <mxCell id="fEWmQViv0Enz_nrROp1N-236" value="" style="endArrow=none;dashed=1;html=1;rounded=1;startArrow=openThin;startFill=0;entryX=1;entryY=0.5;entryDx=0;entryDy=0;exitX=0;exitY=0.5;exitDx=0;exitDy=0;fillColor=#e51400;strokeColor=#B20000;strokeWidth=1.5;" parent="1" source="fEWmQViv0Enz_nrROp1N-231" target="fEWmQViv0Enz_nrROp1N-175" edge="1">
          <mxGeometry width="50" height="50" relative="1" as="geometry">
            <mxPoint x="700" y="-420" as="sourcePoint" />
            <mxPoint x="750" y="-470" as="targetPoint" />
            <Array as="points">
              <mxPoint x="820" y="-120" />
              <mxPoint x="820" y="-390" />
              <mxPoint x="950" y="-390" />
              <mxPoint x="950" y="-661" />
            </Array>
          </mxGeometry>
        </mxCell>
        <mxCell id="fEWmQViv0Enz_nrROp1N-237" value="" style="endArrow=none;dashed=1;html=1;rounded=1;startArrow=openThin;startFill=0;entryX=0;entryY=0.5;entryDx=0;entryDy=0;exitX=1;exitY=0.5;exitDx=0;exitDy=0;fillColor=#e51400;strokeColor=#B20000;strokeWidth=1.5;" parent="1" source="fEWmQViv0Enz_nrROp1N-59" target="fEWmQViv0Enz_nrROp1N-175" edge="1">
          <mxGeometry width="50" height="50" relative="1" as="geometry">
            <mxPoint x="390" y="-720" as="sourcePoint" />
            <mxPoint x="790" y="-810" as="targetPoint" />
            <Array as="points">
              <mxPoint x="480" y="-120" />
              <mxPoint x="480" y="-660" />
            </Array>
          </mxGeometry>
        </mxCell>
      </root>
    </mxGraphModel>
  </diagram>
</mxfile>
